<svg version="1.1" xmlns="http://www.w3.org/2000/svg" viewBox="0 0 740 740" width="100%" height="100%" overflow="hidden" style="font-family: &quot;Helvetica Neue&quot;, Helvetica, Arial, sans-serif;"><style type="text/css">.hidden{ visibility: hidden;}</style><g transform="translate(370,370)"><path class="arc" id="path-0" d="M0,93.5A93.5,93.5 0 1,1 0,-93.5A93.5,93.5 0 1,1 0,93.5Z" fill-rule="evenodd" style="fill: rgb(90, 200, 157);" fill-opacity="1"/><path class="arc" id="path-1" d="M1.1389215232070385e-14,-186A186,186 0 1,1 -184.16500108912834,-26.06247060125639L-91.58743333733533,-12.961174895786108A92.5,92.5 0 1,0 5.6639914460565085e-15,-92.5Z" fill-rule="evenodd" style="fill: rgb(239, 232, 143);" fill-opacity="1"/><path class="arc" id="path-2" d="M1.7053206678126895e-14,-278.5A278.5,278.5 0 0,1 0.3621038003153015,-278.4997645974549L0.2405357380909543,-184.99984362847093A185,185 0 0,0 1.1327982892113017e-14,-185Z" fill-rule="evenodd" style="fill: rgb(248, 239, 163);" fill-opacity="1"/><path class="arc" id="path-3" d="M2.27171981241834e-14,-371A371,371 0 0,1 0.48237166936077863,-370.9996864116904L0.36080360713643145,-277.4997654427064A277.5,277.5 0 0,0 1.6991974338169527e-14,-277.5Z" fill-rule="evenodd" style="fill: rgb(249, 240, 171);" fill-opacity="1"/><path class="arc" id="path-4" d="M0.3621038003153015,-278.4997645974549A278.5,278.5 0 0,1 0.5431555091798949,-278.4994703443668L0.36080348006563934,-184.99964816412157A185,185 0 0,0 0.2405357380909543,-184.99984362847093Z" fill-rule="evenodd" style="fill: rgb(227, 223, 126);" fill-opacity="1"/><path class="arc" id="path-5" d="M0.48237166936077863,-370.9996864116904A371,371 0 0,1 0.7235572492127146,-370.9992944264276L0.541205220098459,-277.4994722461824A277.5,277.5 0 0,0 0.36080360713643145,-277.4997654427064Z" fill-rule="evenodd" style="fill: rgb(228, 224, 132);" fill-opacity="1"/><path class="arc hidden" id="path-6" d="M0.6026395384062557,-463.49960822592584A463.5,463.5 0 0,1 0.9039589892455342,-463.4991185084884L0.7216069601312787,-369.99929632824313A370,370 0 0,0 0.4810714761819086,-369.99968725694185Z" fill-rule="evenodd" style="fill: rgb(229, 226, 138);" fill-opacity="0.2"/><path class="arc hidden" id="path-7" d="M0.7229074074517329,-555.9995300401613A556,556 0 0,1 1.084360729278354,-555.9989425905492L0.9020087001640983,-462.49912041030393A462.5,462.5 0 0,0 0.6013393452273857,-462.49960907117736Z" fill-rule="evenodd" style="fill: rgb(231, 227, 144);" fill-opacity="0.2"/><path class="arc hidden" id="path-8" d="M0.84317527649721,-648.4994518543967A648.5,648.5 0 0,1 1.2647624693111734,-648.4987666726099L1.082410440196918,-554.9989444923648A555,555 0 0,0 0.7216072142728629,-554.9995308854128Z" fill-rule="evenodd" style="fill: rgb(232, 229, 150);" fill-opacity="0.2"/><path class="arc" id="path-9" d="M0.5431555091798949,-278.4994703443668A278.5,278.5 0 0,1 1.086308952396576,-278.49788137948184L0.721605587767923,-184.99859265782456A185,185 0 0,0 0.36080348006563934,-184.99964816412157Z" fill-rule="evenodd" style="fill: rgb(237, 220, 143);" fill-opacity="1"/><path class="arc" id="path-10" d="M0.7235572492127146,-370.9992944264276A371,371 0 0,1 1.205927389603668,-370.9980400745144L0.902007683598431,-277.4985340179993A277.5,277.5 0 0,0 0.541205220098459,-277.4994722461824Z" fill-rule="evenodd" style="fill: rgb(238, 222, 149);" fill-opacity="1"/><path class="arc hidden" id="path-11" d="M0.9039589892455342,-463.4991185084884A463.5,463.5 0 0,1 1.5065966174698118,-463.49755141384753L1.2026769114645746,-369.99804535733244A370,370 0 0,0 0.7216069601312787,-369.99929632824313Z" fill-rule="evenodd" style="fill: rgb(239, 224, 156);" fill-opacity="0.2"/><path class="arc hidden" id="path-12" d="M1.084360729278354,-555.9989425905492A556,556 0 0,1 1.4458135928262787,-555.9981201614397L1.2026776738887661,-462.4984362853703A462.5,462.5 0 0,0 0.9020087001640983,-462.49912041030393Z" fill-rule="evenodd" style="fill: rgb(240, 226, 163);" fill-opacity="0.2"/><path class="arc hidden" id="path-13" d="M1.4458135928262787,-555.9981201614397A556,556 0 0,1 1.8072658453359554,-555.9970627531806L1.5033461393307184,-462.4975566966655A462.5,462.5 0 0,0 1.2026776738887661,-462.4984362853703Z" fill-rule="evenodd" style="fill: white;" fill-opacity="0.2"/><path class="arc" id="path-14" d="M1.205927389603668,-370.9980400745144A371,371 0 0,1 1.4471117462805376,-370.99717770839413L1.0824083816518846,-277.4978889867368A277.5,277.5 0 0,0 0.902007683598431,-277.4985340179993Z" fill-rule="evenodd" style="fill: white;" fill-opacity="1"/><path class="arc" id="path-15" d="M1.086308952396576,-278.49788137948184A278.5,278.5 0 1,1 -252.66858267865166,117.1359779365903L-167.84088975063037,77.81025464369553A185,185 0 1,0 0.721605587767923,-184.99859265782456Z" fill-rule="evenodd" style="fill: rgb(237, 209, 125);" fill-opacity="1"/><path class="arc" id="path-16" d="M1.4471117462805376,-370.99717770839413A371,371 0 0,1 1.6882954913707315,-370.9961585492952L1.2628086222516928,-277.49712667770734A277.5,277.5 0 0,0 1.0824083816518846,-277.4978889867368Z" fill-rule="evenodd" style="fill: rgb(235, 225, 122);" fill-opacity="1"/><path class="arc hidden" id="path-17" d="M1.8079145401644992,-463.4964740373064A463.5,463.5 0 0,1 2.1092316987879625,-463.4952007751977L1.6837448296689237,-369.9961689036098A370,370 0 0,0 1.443211175535846,-369.9971853156491Z" fill-rule="evenodd" style="fill: rgb(236, 227, 129);" fill-opacity="0.2"/><path class="arc hidden" id="path-18" d="M2.1687173340484605,-555.9957703662187A556,556 0 0,1 2.5301679062051936,-555.9942430011001L2.1046810370861544,-462.49521112951226A462.5,462.5 0 0,0 1.8040139694198076,-462.4964816445614Z" fill-rule="evenodd" style="fill: rgb(237, 228, 135);" fill-opacity="0.2"/><path class="arc" id="path-19" d="M1.6882954913707315,-370.9961585492952A371,371 0 1,1 -325.5098233319093,178.000996947852L-243.47432877251973,133.14090742056314A277.5,277.5 0 1,0 1.2628086222516928,-277.49712667770734Z" fill-rule="evenodd" style="fill: rgb(239, 194, 129);" fill-opacity="1"/><path class="arc hidden" id="path-20" d="M2.1092316987879625,-463.4952007751977A463.5,463.5 0 0,1 2.711863214443563,-463.4920665965127L2.1648099014975584,-369.9936669702475A370,370 0 0,0 1.6837448296689237,-369.9961689036098Z" fill-rule="evenodd" style="fill: rgb(240, 207, 126);" fill-opacity="0.2"/><path class="arc hidden" id="path-21" d="M2.5301679062051936,-555.9942430011001A556,556 0 0,1 2.8916174090475697,-555.9924806584705L2.405347215259894,-462.49374515205506A462.5,462.5 0 0,0 2.1046810370861544,-462.49521112951226Z" fill-rule="evenodd" style="fill: rgb(239, 213, 128);" fill-opacity="0.2"/><path class="arc hidden" id="path-22" d="M2.8916174090475697,-555.9924806584705A556,556 0 0,1 3.253065689817953,-555.9904833390746L2.706012376871948,-462.49208371280935A462.5,462.5 0 0,0 2.405347215259894,-462.49374515205506Z" fill-rule="evenodd" style="fill: rgb(240, 200, 123);" fill-opacity="0.2"/><path class="arc hidden" id="path-23" d="M3.3726868520995485,-648.4912296888815A648.5,648.5 0 0,1 3.7942681651923422,-648.4889000816364L3.2472148522463375,-554.9905004553711A555,555 0 0,0 2.8864166583118727,-554.9924941824661Z" fill-rule="evenodd" style="fill: rgb(241, 203, 130);" fill-opacity="0.2"/><path class="arc hidden" id="path-24" d="M2.711863214443563,-463.4920665965127A463.5,463.5 0 1,1 -375.1121658410083,272.2556023997815L-299.4422898838685,217.33456933747388A370,370 0 1,0 2.1648099014975584,-369.9936669702475Z" fill-rule="evenodd" style="fill: rgb(238, 182, 132);" fill-opacity="0.2"/><path class="arc hidden" id="path-25" d="M3.253065689817953,-555.9904833390746A556,556 0 1,1 -449.9727383119754,326.58924473414993L-374.30286235483567,271.66821167184236A462.5,462.5 0 1,0 2.706012376871948,-462.49208371280935Z" fill-rule="evenodd" style="fill: rgb(239, 186, 138);" fill-opacity="0.2"/><path class="arc hidden" id="path-26" d="M3.7942681651923422,-648.4889000816364A648.5,648.5 0 1,1 -524.8333107829425,380.92288706851843L-449.16343482580277,326.0018540062108A555,555 0 1,0 3.2472148522463375,-554.9905004553711Z" fill-rule="evenodd" style="fill: rgb(240, 190, 145);" fill-opacity="0.2"/><path class="arc hidden" id="path-27" d="M4.335470640566732,-740.9873168241983A741,741 0 0,1 423.7751508875591,607.8615150593321L370.3028477728671,531.1610404870681A647.5,647.5 0 0,0 3.7884173276207274,-647.488917197933Z" fill-rule="evenodd" style="fill: rgb(241, 194, 152);" fill-opacity="0.2"/><path class="arc hidden" id="path-28" d="M423.7751508875591,607.8615150593321A741,741 0 0,1 -599.6938832539093,435.2565294028874L-524.0240072967696,380.3354963405797A647.5,647.5 0 0,0 370.3028477728671,531.1610404870681Z" fill-rule="evenodd" style="fill: white;" fill-opacity="0.2"/><path class="arc hidden" id="path-29" d="M-375.1121658410083,272.2556023997815A463.5,463.5 0 0,1 -375.8188667409343,271.2792461681502L-300.0064308395808,216.5551695409182A370,370 0 0,0 -299.4422898838685,217.33456933747388Z" fill-rule="evenodd" style="fill: rgb(231, 176, 146);" fill-opacity="0.2"/><path class="arc hidden" id="path-30" d="M-449.9727383119754,326.58924473414993A556,556 0 0,1 -450.82047445082947,325.4180385533798L-375.00803854947594,270.6939619261478A462.5,462.5 0 0,0 -374.30286235483567,271.66821167184236Z" fill-rule="evenodd" style="fill: rgb(232, 181, 152);" fill-opacity="0.2"/><path class="arc hidden" id="path-31" d="M-375.8188667409343,271.2792461681502A463.5,463.5 0 0,1 -406.6679329227492,222.38129942137303L-324.63243836335965,177.5212098940842A370,370 0 0,0 -300.0064308395808,216.5551695409182Z" fill-rule="evenodd" style="fill: white;" fill-opacity="0.2"/><path class="arc" id="path-32" d="M-325.5098233319093,178.000996947852A371,371 0 0,1 -336.58902755396684,156.04110525843805L-251.76133462594555,116.71538196554329A277.5,277.5 0 0,0 -243.47432877251973,133.14090742056314Z" fill-rule="evenodd" style="fill: white;" fill-opacity="1"/><path class="arc" id="path-33" d="M-252.66858267865166,117.1359779365903A278.5,278.5 0 0,1 -252.97232694657436,116.4785465192432L-168.04265883345153,77.37354077579889A185,185 0 0,0 -167.84088975063037,77.81025464369553Z" fill-rule="evenodd" style="fill: rgb(185, 204, 154);" fill-opacity="1"/><path class="arc" id="path-34" d="M-336.58902755396684,156.04110525843805A371,371 0 0,1 -336.69039824013964,155.8222568598471L-251.837157713312,116.5516880825002A277.5,277.5 0 0,0 -251.76133462594555,116.71538196554329Z" fill-rule="evenodd" style="fill: rgb(203, 213, 139);" fill-opacity="1"/><path class="arc hidden" id="path-35" d="M-420.509472429282,194.94623258028582A463.5,463.5 0 0,1 -420.6361174779103,194.67281955401384L-335.78287695108264,155.40225077666693A370,370 0 0,0 -335.68177950126073,155.62050928739106Z" fill-rule="evenodd" style="fill: rgb(206, 215, 145);" fill-opacity="0.2"/><path class="arc hidden" id="path-36" d="M-504.4299173045972,233.8513599021336A556,556 0 0,1 -504.581836715681,233.52338224818058L-419.7285961888533,194.25281347083367A462.5,462.5 0 0,0 -419.6022243765759,194.52563660923883Z" fill-rule="evenodd" style="fill: rgb(208, 217, 150);" fill-opacity="0.2"/><path class="arc hidden" id="path-37" d="M-588.3503621799124,272.75648722398137A648.5,648.5 0 0,1 -588.5275559534516,272.3739449423473L-503.674315426624,233.1033761650004A555,555 0 0,0 -503.5226692518911,233.43076393108657Z" fill-rule="evenodd" style="fill: rgb(210, 219, 155);" fill-opacity="0.2"/><path class="arc hidden" id="path-38" d="M-672.2708070552276,311.66161454582914A741,741 0 0,1 -672.4732751912223,311.22450763651403L-587.6200346643947,271.9539388591671A647.5,647.5 0 0,0 -587.4431141272063,272.33589125293435Z" fill-rule="evenodd" style="fill: rgb(213, 221, 161);" fill-opacity="0.2"/><path class="arc" id="path-39" d="M-336.69039824013964,155.8222568598471A371,371 0 0,1 -336.89271268755795,155.3843625916667L-251.9884845574052,116.22415261236526A277.5,277.5 0 0,0 -251.837157713312,116.5516880825002Z" fill-rule="evenodd" style="fill: rgb(178, 196, 168);" fill-opacity="1"/><path class="arc hidden" id="path-40" d="M-420.6361174779103,194.67281955401384A463.5,463.5 0 0,1 -420.888874206693,194.12574679578844L-335.9846460765403,154.965536816487A370,370 0 0,0 -335.78287695108264,155.40225077666693Z" fill-rule="evenodd" style="fill: rgb(182, 199, 172);" fill-opacity="0.2"/><path class="arc hidden" id="path-41" d="M-504.581836715681,233.52338224818058A556,556 0 0,1 -504.7335428774627,233.19530590122207L-419.8547906129973,193.97990823617843A462.5,462.5 0 0,0 -419.7285961888533,194.25281347083367Z" fill-rule="evenodd" style="fill: rgb(197, 207, 176);" fill-opacity="0.2"/><path class="arc hidden" id="path-42" d="M-588.5275559534516,272.3739449423473A648.5,648.5 0 0,1 -588.7045010000621,271.99128754845776L-503.82574873559673,232.7758898834141A555,555 0 0,0 -503.674315426624,233.1033761650004Z" fill-rule="evenodd" style="fill: rgb(201, 210, 181);" fill-opacity="0.2"/><path class="arc hidden" id="path-43" d="M-504.7335428774627,233.19530590122207A556,556 0 0,1 -504.88503572582783,232.86713099991067L-419.9808075956751,193.70692102060914A462.5,462.5 0 0,0 -419.8547906129973,193.97990823617843Z" fill-rule="evenodd" style="fill: rgb(170, 190, 169);" fill-opacity="0.2"/><path class="arc hidden" id="path-44" d="M-588.7045010000621,271.99128754845776A648.5,648.5 0 0,1 -588.8811972449629,271.60851520403247L-503.9769691148102,232.44830522473097A555,555 0 0,0 -503.82574873559673,232.7758898834141Z" fill-rule="evenodd" style="fill: rgb(174, 193, 173);" fill-opacity="0.2"/><path class="arc" id="path-45" d="M-336.89271268755795,155.3843625916667A371,371 0 0,1 -336.9936563633001,155.16531690714262L-252.06398825017732,116.06031116369833A277.5,277.5 0 0,0 -251.9884845574052,116.22415261236526Z" fill-rule="evenodd" style="fill: rgb(156, 175, 157);" fill-opacity="1"/><path class="arc hidden" id="path-46" d="M-420.888874206693,194.12574679578844A463.5,463.5 0 0,1 -421.0149857800259,193.85208729504208L-336.08531766690305,154.74708155159777A370,370 0 0,0 -335.9846460765403,154.965536816487Z" fill-rule="evenodd" style="fill: rgb(159, 178, 160);" fill-opacity="0.2"/><path class="arc hidden" id="path-47" d="M-504.88503572582806,232.8671309999102A556,556 0 0,1 -505.0363151967517,232.5388576829415L-420.10664708362884,193.43385193949723A462.5,462.5 0 0,0 -419.98080759567534,193.70692102060875Z" fill-rule="evenodd" style="fill: rgb(163, 181, 164);" fill-opacity="0.2"/><path class="arc hidden" id="path-48" d="M-588.8811972449631,271.60851520403196A648.5,648.5 0 0,1 -589.0576446134775,271.22562807084097L-504.12797650035463,232.12062232739666A555,555 0 0,0 -503.9769691148104,232.44830522473052Z" fill-rule="evenodd" style="fill: rgb(167, 184, 168);" fill-opacity="0.2"/><path class="arc" id="path-49" d="M-252.97232694657436,116.4785465192432A278.5,278.5 0 0,1 -253.1235577330024,116.1495351716373L-168.14311734508237,77.15498745692244A185,185 0 0,0 -168.04265883345153,77.37354077579889Z" fill-rule="evenodd" style="fill: rgb(166, 142, 56);" fill-opacity="1"/><path class="arc" id="path-50" d="M-336.9936563633001,155.16531690714262A371,371 0 0,1 -337.19511640554356,154.72702890009853L-252.21467601762356,115.73248118538366A277.5,277.5 0 0,0 -252.06398825017732,116.06031116369833Z" fill-rule="evenodd" style="fill: rgb(169, 145, 57);" fill-opacity="1"/><path class="arc hidden" id="path-51" d="M-421.0149857800259,193.85208729504208A463.5,463.5 0 0,1 -421.26667507808475,193.30452262855974L-336.28623469016475,154.30997491384488A370,370 0 0,0 -336.08531766690305,154.74708155159777Z" fill-rule="evenodd" style="fill: rgb(173, 148, 59);" fill-opacity="0.2"/><path class="arc hidden" id="path-52" d="M-505.0363151967517,232.5388576829415A556,556 0 0,1 -505.338233750626,231.88201635702097L-420.35779336270593,192.88746864230612A462.5,462.5 0 0,0 -420.10664708362884,193.43385193949723Z" fill-rule="evenodd" style="fill: rgb(176, 151, 60);" fill-opacity="0.2"/><path class="arc hidden" id="path-53" d="M-589.0576446134775,271.22562807084097A648.5,648.5 0 0,1 -589.4097924231671,270.4595100854822L-504.4293520352471,231.46496237076732A555,555 0 0,0 -504.12797650035463,232.12062232739666Z" fill-rule="evenodd" style="fill: rgb(180, 154, 61);" fill-opacity="0.2"/><path class="arc" id="path-54" d="M-253.1235577330024,116.1495351716373A278.5,278.5 0 0,1 -254.2441315855437,113.67572983848724L-168.88748417711162,75.51170563777428A185,185 0 0,0 -168.14311734508237,77.15498745692244Z" fill-rule="evenodd" style="fill: rgb(189, 134, 61);" fill-opacity="1"/><path class="arc" id="path-55" d="M-337.19511640554356,154.72702890009853A371,371 0 0,1 -337.3960064184256,154.28847932654497L-252.3649374153992,115.40445556096019A277.5,277.5 0 0,0 -252.21467601762356,115.73248118538366Z" fill-rule="evenodd" style="fill: rgb(167, 124, 58);" fill-opacity="1"/><path class="arc hidden" id="path-56" d="M-421.26667507808475,193.30452262855974A463.5,463.5 0 0,1 -421.5176522235587,192.75663118019835L-336.4865832205323,153.87260741461358A370,370 0 0,0 -336.28623469016475,154.30997491384488Z" fill-rule="evenodd" style="fill: rgb(170, 127, 59);" fill-opacity="0.2"/><path class="arc hidden" id="path-57" d="M-505.338233750626,231.88201635702097A556,556 0 0,1 -505.63929802869177,231.22478303385176L-420.60822902566537,192.34075926826696A462.5,462.5 0 0,0 -420.35779336270593,192.88746864230612Z" fill-rule="evenodd" style="fill: rgb(174, 129, 60);" fill-opacity="0.2"/><path class="arc hidden" id="path-58" d="M-589.4097924231671,270.4595100854822A648.5,648.5 0 0,1 -589.5854927155158,270.0762795570957L-504.5797200572263,231.1369855885707A555,555 0 0,0 -504.4293520352471,231.46496237076732Z" fill-rule="evenodd" style="fill: rgb(178, 134, 71);" fill-opacity="0.2"/><path class="arc hidden" id="path-59" d="M-589.5854927155158,270.0762795570957A648.5,648.5 0 0,1 -589.7609438338246,269.6929348875057L-504.7298748307982,230.80891112192083A555,555 0 0,0 -504.5797200572263,231.1369855885707Z" fill-rule="evenodd" style="fill: rgb(169, 125, 50);" fill-opacity="0.2"/><path class="arc" id="path-60" d="M-337.3960064184256,154.28847932654497A371,371 0 0,1 -337.6962718900729,153.6301661508766L-252.58952951346424,114.9120515009926A277.5,277.5 0 0,0 -252.3649374153992,115.40445556096019Z" fill-rule="evenodd" style="fill: rgb(201, 141, 76);" fill-opacity="1"/><path class="arc hidden" id="path-61" d="M-421.5176522235587,192.75663118019835A463.5,463.5 0 0,1 -421.8927817278943,191.93418331787413L-336.78603935128564,153.21606866799013A370,370 0 0,0 -336.4865832205323,153.87260741461358Z" fill-rule="evenodd" style="fill: rgb(202, 144, 80);" fill-opacity="0.2"/><path class="arc hidden" id="path-62" d="M-505.63929802869177,231.22478303385176A556,556 0 0,1 -505.78950965519294,230.89601972047817L-420.73318024375317,192.06728259122508A462.5,462.5 0 0,0 -420.60822902566537,192.34075926826696Z" fill-rule="evenodd" style="fill: rgb(178, 128, 51);" fill-opacity="0.2"/><path class="arc hidden" id="path-63" d="M-589.7609438338249,269.69293488750515A648.5,648.5 0 0,1 -589.9361457039436,269.30947623872316L-504.8798162925038,230.4807391094701A555,555 0 0,0 -504.7298748307984,230.80891112192037Z" fill-rule="evenodd" style="fill: rgb(182, 131, 52);" fill-opacity="0.2"/><path class="arc hidden" id="path-64" d="M-505.78950965519294,230.89601972047817A556,556 0 0,1 -505.9395075219984,230.56715882449018L-420.85795364914435,191.79372474159481A462.5,462.5 0 0,0 -420.73318024375317,192.06728259122508Z" fill-rule="evenodd" style="fill: rgb(212, 162, 123);" fill-opacity="0.2"/><path class="arc hidden" id="path-65" d="M-589.9361457039436,269.30947623872316A648.5,648.5 0 0,1 -590.1110982518272,268.92590377280914L-505.02954437897324,230.15246968991377A555,555 0 0,0 -504.8798162925038,230.4807391094701Z" fill-rule="evenodd" style="fill: rgb(214, 166, 128);" fill-opacity="0.2"/><path class="arc hidden" id="path-66" d="M-505.9395075219984,230.56715882449018A556,556 0 0,1 -506.08929156571554,230.2382004848721L-420.9825491891069,191.520085834988A462.5,462.5 0 0,0 -420.85795364914435,191.79372474159481Z" fill-rule="evenodd" style="fill: rgb(223, 173, 112);" fill-opacity="0.2"/><path class="arc" id="path-67" d="M-337.6962718900729,153.6301661508766A371,371 0 0,1 -338.29294828000957,152.3117892483007L-253.03583058679962,113.92593400647829A277.5,277.5 0 0,0 -252.58952951346424,114.9120515009926Z" fill-rule="evenodd" style="fill: rgb(168, 109, 73);" fill-opacity="1"/><path class="arc hidden" id="path-68" d="M-421.8927817278943,191.93418331787413A463.5,463.5 0 0,1 -422.14197663832624,191.38547896819878L-336.9849651697534,152.77805225077356A370,370 0 0,0 -336.78603935128564,153.21606866799013Z" fill-rule="evenodd" style="fill: rgb(154, 106, 84);" fill-opacity="0.2"/><path class="arc hidden" id="path-69" d="M-506.0892915657157,230.23820048487167A556,556 0 0,1 -506.38821793076454,229.57999203089219L-421.2312064621917,190.97256531346696A462.5,462.5 0 0,0 -420.9825491891071,191.52008583498767Z" fill-rule="evenodd" style="fill: rgb(157, 108, 86);" fill-opacity="0.2"/><path class="arc hidden" id="path-70" d="M-590.2858014035371,268.5422176518692A648.5,648.5 0 0,1 -590.634459223203,267.77450509358556L-505.4774477546301,229.16707837616036A555,555 0 0,0 -505.1790590269285,229.8241030019852Z" fill-rule="evenodd" style="fill: rgb(161, 110, 87);" fill-opacity="0.2"/><path class="arc hidden" id="path-71" d="M-674.4823112413586,306.8462348188667A741,741 0 0,1 -674.6816484474351,306.4076912354708L-589.5497535353768,267.7449123818722A647.5,647.5 0 0,0 -589.3755688647499,268.1281201689827Z" fill-rule="evenodd" style="fill: rgb(162, 118, 93);" fill-opacity="0.2"/><path class="arc hidden" id="path-72" d="M-674.6816484474351,306.4076912354708A741,741 0 0,1 -674.8807005156409,305.96901815627956L-589.7236890470682,267.3615914388543A647.5,647.5 0 0,0 -589.5497535353768,267.7449123818722Z" fill-rule="evenodd" style="fill: rgb(159, 102, 82);" fill-opacity="0.2"/><path class="arc hidden" id="path-73" d="M-422.14197663832624,191.38547896819878A463.5,463.5 0 0,1 -422.2663065077169,191.11100540871755L-337.0842144721796,152.55894714396007A370,370 0 0,0 -336.9849651697534,152.77805225077356Z" fill-rule="evenodd" style="fill: rgb(181, 116, 62);" fill-opacity="0.2"/><path class="arc hidden" id="path-74" d="M-506.38821793076454,229.57999203089219A556,556 0 0,1 -506.5373601257618,229.25074219470758L-421.3552680902245,190.6986839299501A462.5,462.5 0 0,0 -421.2312064621917,190.97256531346696Z" fill-rule="evenodd" style="fill: rgb(185, 118, 63);" fill-opacity="0.2"/><path class="arc hidden" id="path-75" d="M-422.2663065077169,191.11100540871755A463.5,463.5 0 0,1 -422.51443081212386,190.56181610046374L-337.28228565369113,152.1205435969182A370,370 0 0,0 -337.0842144721796,152.55894714396007Z" fill-rule="evenodd" style="fill: rgb(191, 110, 93);" fill-opacity="0.2"/><path class="arc hidden" id="path-76" d="M-422.51443081212386,190.56181610046374A463.5,463.5 0 0,1 -422.6382251422761,190.28710058379346L-337.3811074490662,151.90124534197105A370,370 0 0,0 -337.28228565369113,152.1205435969182Z" fill-rule="evenodd" style="fill: rgb(168, 96, 58);" fill-opacity="0.2"/><path class="arc hidden" id="path-77" d="M-506.83500222554665,228.5919519996933A556,556 0 0,1 -506.9835020045427,228.26241191928622L-421.7263843113327,189.8765566774638A462.5,462.5 0 0,0 -421.6028570671139,190.15067949614775Z" fill-rule="evenodd" style="fill: rgb(172, 98, 59);" fill-opacity="0.2"/><path class="arc hidden" id="path-78" d="M-591.1555736389695,266.62208789892287A648.5,648.5 0 0,1 -591.3287788668092,266.237723254779L-506.07166117359924,227.85186801295657A555,555 0 0,0 -505.9234284805367,228.1808153953773Z" fill-rule="evenodd" style="fill: rgb(175, 100, 60);" fill-opacity="0.2"/><path class="arc" id="path-79" d="M-338.29294828000957,152.3117892483007A371,371 0 0,1 -338.3918941899904,152.09183392447588L-253.10983999386073,113.76141216722927A277.5,277.5 0 0,0 -253.03583058679962,113.92593400647829Z" fill-rule="evenodd" style="fill: rgb(146, 72, 59);" fill-opacity="1"/><path class="arc hidden" id="path-80" d="M-422.6382251422761,190.28710058379346A463.5,463.5 0 0,1 -422.7618408546106,190.01230464688564L-337.479786658481,151.68188288963904A370,370 0 0,0 -337.3811074490662,151.90124534197105Z" fill-rule="evenodd" style="fill: rgb(149, 73, 61);" fill-opacity="0.2"/><path class="arc hidden" id="path-81" d="M-506.9835020045427,228.26241191928622A556,556 0 0,1 -507.1317875192309,227.9327753692954L-421.84973332310125,189.60235361204877A462.5,462.5 0 0,0 -421.7263843113327,189.8765566774638Z" fill-rule="evenodd" style="fill: rgb(152, 74, 62);" fill-opacity="0.2"/><path class="arc hidden" id="path-82" d="M-591.3287788668092,266.237723254779A648.5,648.5 0 0,1 -591.5017341838511,265.85324609170516L-506.21967998772146,227.52282433445853A555,555 0 0,0 -506.07166117359924,227.85186801295657Z" fill-rule="evenodd" style="fill: rgb(155, 76, 63);" fill-opacity="0.2"/><path class="arc" id="path-83" d="M-338.3918941899904,152.09183392447588A371,371 0 0,1 -338.6878736740995,151.43158265737438L-253.33122626566742,113.26755845666143A277.5,277.5 0 0,0 -253.10983999386073,113.76141216722927Z" fill-rule="evenodd" style="fill: rgb(135, 94, 145);" fill-opacity="1"/><path class="arc hidden" id="path-84" d="M-422.7618408546106,190.01230464688564A463.5,463.5 0 0,1 -423.00853621693034,189.46247197693256L-337.67671715267363,151.24296576367865A370,370 0 0,0 -337.479786658481,151.68188288963904Z" fill-rule="evenodd" style="fill: rgb(121, 100, 153);" fill-opacity="0.2"/><path class="arc hidden" id="path-85" d="M-507.1317875192309,227.9327753692954A556,556 0 0,1 -507.27985870694243,227.60304248903287L-421.97290405028934,189.32807041578724A462.5,462.5 0 0,0 -421.84973332310125,189.60235361204877Z" fill-rule="evenodd" style="fill: rgb(109, 96, 151);" fill-opacity="0.2"/><path class="arc hidden" id="path-86" d="M-591.5017341838511,265.85324609170516A648.5,648.5 0 0,1 -591.6744395170003,265.4686565721903L-506.36748486034725,227.1936844989447A555,555 0 0,0 -506.21967998772146,227.52282433445853Z" fill-rule="evenodd" style="fill: rgb(111, 98, 155);" fill-opacity="0.2"/><path class="arc hidden" id="path-87" d="M-675.8716808484713,303.7737168141149A741,741 0 0,1 -676.0690203270582,303.3342706553478L-590.7620656704051,265.05929858210214A647.5,647.5 0 0,0 -590.5896266523417,265.4432950568683Z" fill-rule="evenodd" style="fill: rgb(114, 101, 157);" fill-opacity="0.2"/><path class="arc hidden" id="path-88" d="M-507.27985870694243,227.60304248903287A556,556 0 0,1 -507.42771550509855,227.2732134178527L-422.09589644084184,189.05370720459868A462.5,462.5 0 0,0 -421.97290405028934,189.32807041578724Z" fill-rule="evenodd" style="fill: rgb(133, 104, 154);" fill-opacity="0.2"/><path class="arc hidden" id="path-89" d="M-591.6744395170003,265.4686565721903A648.5,648.5 0 0,1 -591.8468947932669,265.0839548587724L-506.5150757290102,226.86444864551842A555,555 0 0,0 -506.36748486034725,227.1936844989447Z" fill-rule="evenodd" style="fill: rgb(135, 107, 156);" fill-opacity="0.2"/><path class="arc hidden" id="path-90" d="M-676.0690203270582,303.3342706553478A741,741 0 0,1 -676.2660740814352,302.89469629969216L-590.9342550171785,264.6751900864382A647.5,647.5 0 0,0 -590.7620656704051,265.05929858210214Z" fill-rule="evenodd" style="fill: rgb(138, 110, 158);" fill-opacity="0.2"/><path class="arc hidden" id="path-91" d="M-423.00853621693034,189.46247197693256A463.5,463.5 0 0,1 -423.1316157626553,189.18743547626153L-337.77496835422323,151.02341127554857A370,370 0 0,0 -337.67671715267363,151.24296576367865Z" fill-rule="evenodd" style="fill: rgb(137, 88, 128);" fill-opacity="0.2"/><path class="arc hidden" id="path-92" d="M-507.4277155050987,227.27321341785225A556,556 0 0,1 -507.5753578512111,226.94328829514868L-422.218710442779,188.77926409443572A462.5,462.5 0 0,0 -422.095896440842,189.0537072045983Z" fill-rule="evenodd" style="fill: rgb(140, 90, 130);" fill-opacity="0.2"/><path class="arc hidden" id="path-93" d="M-591.8468947932671,265.0839548587719A648.5,648.5 0 0,1 -592.0190999397669,264.69914111403585L-506.66245253133485,226.53511691332287A555,555 0 0,0 -506.5150757290104,226.86444864551797Z" fill-rule="evenodd" style="fill: rgb(143, 92, 133);" fill-opacity="0.2"/><path class="arc" id="path-94" d="M-254.2441315855437,113.67572983848724A278.5,278.5 0 0,1 -254.31797808036467,113.5104225395851L-168.93653840167852,75.40189648051434A185,185 0 0,0 -168.88748417711162,75.51170563777428Z" fill-rule="evenodd" style="fill: rgb(136, 69, 128);" fill-opacity="1"/><path class="arc" id="path-95" d="M-338.6878736740995,151.43158265737438A371,371 0 0,1 -338.78624728120394,151.21137077984227L-253.40480760251776,113.1028447207715A277.5,277.5 0 0,0 -253.33122626566742,113.26755845666143Z" fill-rule="evenodd" style="fill: rgb(138, 71, 131);" fill-opacity="1"/><path class="arc hidden" id="path-96" d="M-423.1316157626553,189.18743547626153A463.5,463.5 0 0,1 -423.2545164820432,188.91231902009943L-337.87307680335704,150.80379296102868A370,370 0 0,0 -337.77496835422323,151.02341127554857Z" fill-rule="evenodd" style="fill: rgb(141, 72, 133);" fill-opacity="0.2"/><path class="arc hidden" id="path-97" d="M-507.5753578512111,226.94328829514868A556,556 0 0,1 -507.72278568288243,226.6132672603566L-422.3413460041963,188.50474120128584A462.5,462.5 0 0,0 -422.218710442779,188.77926409443572Z" fill-rule="evenodd" style="fill: rgb(144, 74, 136);" fill-opacity="0.2"/><path class="arc hidden" id="path-98" d="M-592.0190999397669,264.69914111403585A648.5,648.5 0 0,1 -592.1910548837217,264.3142155006138L-506.8096152050355,226.205689441543A555,555 0 0,0 -506.66245253133485,226.53511691332287Z" fill-rule="evenodd" style="fill: rgb(147, 75, 139);" fill-opacity="0.2"/><path class="arc" id="path-99" d="M-254.31797808036467,113.5104225395851A278.5,278.5 0 0,1 -254.39171709384692,113.34506726825016L-168.98552122930585,75.29205545646779A185,185 0 0,0 -168.93653840167852,75.40189648051434Z" fill-rule="evenodd" style="fill: rgb(148, 73, 127);" fill-opacity="1"/><path class="arc" id="path-100" d="M-338.78624728120394,151.21137077984227A371,371 0 0,1 -338.88447770849984,150.99109499648407L-253.47828184395877,112.93808318470168A277.5,277.5 0 0,0 -253.40480760251776,113.1028447207715Z" fill-rule="evenodd" style="fill: rgb(151, 75, 130);" fill-opacity="1"/><path class="arc hidden" id="path-101" d="M-423.2545164820432,188.91231902009943A463.5,463.5 0 0,1 -423.37723832315277,188.63712272471795L-337.9710424586117,150.58411091293559A370,370 0 0,0 -337.87307680335704,150.80379296102868Z" fill-rule="evenodd" style="fill: rgb(154, 76, 132);" fill-opacity="0.2"/><path class="arc hidden" id="path-102" d="M-507.72278568288243,226.6132672603566A556,556 0 0,1 -507.8699989378057,226.28315045295184L-422.4638030732646,188.23013864116948A462.5,462.5 0 0,0 -422.3413460041963,188.50474120128584Z" fill-rule="evenodd" style="fill: rgb(157, 78, 135);" fill-opacity="0.2"/><path class="arc" id="path-103" d="M-254.39171709384692,113.34506726825016A278.5,278.5 0 0,1 -254.46534859482657,113.17966409436542L-169.03443263929233,75.18218261205602A185,185 0 0,0 -168.98552122930585,75.29205545646779Z" fill-rule="evenodd" style="fill: rgb(143, 81, 137);" fill-opacity="1"/><path class="arc" id="path-104" d="M-338.88447770849984,150.99109499648407A371,371 0 0,1 -338.98256491447273,150.77075540039343L-253.5516489589385,112.77327391808403A277.5,277.5 0 0,0 -253.47828184395877,112.93808318470168Z" fill-rule="evenodd" style="fill: rgb(146, 83, 140);" fill-opacity="1"/><path class="arc" id="path-105" d="M-254.46534859482657,113.17966409436542A278.5,278.5 0 0,1 -275.7524344264637,-39.02364549704225L-183.1748666746707,-25.922349791572053A185,185 0 0,0 -169.03443263929233,75.18218261205602Z" fill-rule="evenodd" style="fill: white;" fill-opacity="1"/><path class="arc" id="path-106" d="M-184.16500108912834,-26.06247060125639A186,186 0 0,1 -183.22071132087106,-32.03390302591971L-91.11782686656223,-15.93083887041706A92.5,92.5 0 0,0 -91.58743333733533,-12.961174895786108Z" fill-rule="evenodd" style="fill: rgb(89, 75, 124);" fill-opacity="1"/><path class="arc" id="path-107" d="M-275.75243442646365,-39.0236454970425A278.5,278.5 0 0,1 -275.72700701221146,-39.202903005873L-183.1579759327078,-26.041425695104145A185,185 0 0,0 -183.17486667467065,-25.922349791572216Z" fill-rule="evenodd" style="fill: rgb(128, 91, 139);" fill-opacity="1"/><path class="arc" id="path-108" d="M-367.339867763799,-51.98482039282861A371,371 0 0,1 -367.30599497856537,-52.223615853425066L-274.7369638990617,-39.062138542656214A277.5,277.5 0 0,0 -274.762300012006,-38.883524687358324Z" fill-rule="evenodd" style="fill: rgb(131, 93, 142);" fill-opacity="1"/><path class="arc hidden" id="path-109" d="M-458.92730110113433,-64.94599528861471A463.5,463.5 0 0,1 -458.8849829449193,-65.24432870097714L-366.3159518654156,-52.08285139020829A370,370 0 0,0 -366.3497333493413,-51.84469958314443Z" fill-rule="evenodd" style="fill: rgb(133, 95, 145);" fill-opacity="0.2"/><path class="arc hidden" id="path-110" d="M-550.5147344384696,-77.90717018440083A556,556 0 0,1 -550.4639709112731,-78.26504154852921L-457.8949398317695,-65.10356423776037A462.5,462.5 0 0,0 -457.9371666866767,-64.80587447893055Z" fill-rule="evenodd" style="fill: rgb(136, 97, 148);" fill-opacity="0.2"/><path class="arc hidden" id="path-111" d="M-642.102167775805,-90.86834508018694A648.5,648.5 0 0,1 -642.042958877627,-91.28575439608129L-549.4739277981234,-78.12427708531243A555,555 0 0,0 -549.524600024012,-77.76704937471665Z" fill-rule="evenodd" style="fill: rgb(139, 99, 151);" fill-opacity="0.2"/><path class="arc" id="path-112" d="M-275.72700701221146,-39.202903005873A278.5,278.5 0 0,1 -274.5539689138956,-46.7158233752512L-182.37875852449076,-31.03205502485268A185,185 0 0,0 -183.1579759327078,-26.041425695104145Z" fill-rule="evenodd" style="fill: rgb(59, 68, 108);" fill-opacity="1"/><path class="arc" id="path-113" d="M-367.30599497856537,-52.223615853425066A371,371 0 0,1 -365.86402269905454,-61.51842727561962L-273.6583997277295,-46.01445705925726A277.5,277.5 0 0,0 -274.7369638990617,-39.062138542656214Z" fill-rule="evenodd" style="fill: rgb(55, 68, 120);" fill-opacity="1"/><path class="arc hidden" id="path-114" d="M-458.8849829449193,-65.24432870097714A463.5,463.5 0 0,1 -457.0834892749644,-76.85657962870538L-364.8778663036393,-61.352609412343014A370,370 0 0,0 -366.3159518654156,-52.08285139020829Z" fill-rule="evenodd" style="fill: rgb(56, 70, 123);" fill-opacity="0.2"/><path class="arc hidden" id="path-115" d="M-550.4639709112731,-78.26504154852921A556,556 0 0,1 -548.3627754808772,-91.83826254295683L-456.1470929134995,-76.39423817647038A462.5,462.5 0 0,0 -457.8949398317695,-65.10356423776037Z" fill-rule="evenodd" style="fill: rgb(57, 71, 125);" fill-opacity="0.2"/><path class="arc hidden" id="path-116" d="M-642.042958877627,-91.28575439608129A648.5,648.5 0 0,1 -639.7998870076066,-105.86951678861048L-547.5542595053533,-90.60536903265816A555,555 0 0,0 -549.4739277981234,-78.12427708531243Z" fill-rule="evenodd" style="fill: rgb(59, 73, 128);" fill-opacity="0.2"/><path class="arc hidden" id="path-117" d="M-733.6219468439809,-104.30646724363335A741,741 0 0,1 -732.4973319128056,-111.93149128203882L-640.0702056862909,-97.80788205819182A647.5,647.5 0 0,0 -641.0529157644773,-91.1449899328645Z" fill-rule="evenodd" style="fill: rgb(65, 66, 132);" fill-opacity="0.2"/><path class="arc hidden" id="path-118" d="M-825.2009348103348,-117.32718009118543A833.5,833.5 0 0,1 -824.260545880459,-123.76107023150628L-731.7970053407794,-109.87785479461866A740,740 0 0,0 -732.6319037308313,-104.16570278041658Z" fill-rule="evenodd" style="fill: rgb(100, 85, 117);" fill-opacity="0.2"/><path class="arc hidden" id="path-119" d="M-916.7799227766887,-130.3478929387375A926,926 0 0,1 -915.7351715480564,-137.4958020808336L-823.2716310083769,-123.61258664394599A832.5,832.5 0 0,0 -824.210891697185,-117.18641562796864Z" fill-rule="evenodd" style="fill: rgb(102, 87, 119);" fill-opacity="0.2"/><path class="arc hidden" id="path-120" d="M-1008.3589107430427,-143.36860578628958A1018.5,1018.5 0 0,1 -1007.3078988543326,-150.57571818081968L-914.8353524204788,-136.75261592268848A925,925 0 0,0 -915.789879663539,-130.20712847552073Z" fill-rule="evenodd" style="fill: rgb(104, 89, 122);" fill-opacity="0.2"/><path class="arc hidden" id="path-121" d="M-1099.9378987093967,-156.38931863384164A1111,1111 0 0,1 -1099.214834723509,-161.3931445996655L-1006.7066555636098,-147.81055322246593A1017.5,1017.5 0 0,0 -1007.3688676298929,-143.2278413230728Z" fill-rule="evenodd" style="fill: rgb(106, 90, 124);" fill-opacity="0.2"/><path class="arc hidden" id="path-122" d="M-1191.5168866757506,-169.4100314813937A1203.5,1203.5 0 0,1 -1190.8470266903003,-174.05633864605804L-1098.3300370803768,-160.5338894035101A1110,1110 0 0,0 -1098.9478555962469,-156.24855417062486Z" fill-rule="evenodd" style="fill: rgb(109, 92, 127);" fill-opacity="0.2"/><path class="arc hidden" id="path-123" d="M-1283.0958746421043,-182.4307443289458A1296,1296 0 0,1 -1282.617146471238,-185.7666697176306L-1190.0826532651724,-172.36452186377377A1202.5,1202.5 0 0,0 -1190.5268435626008,-169.26926701817695Z" fill-rule="evenodd" style="fill: rgb(111, 94, 129);" fill-opacity="0.2"/><path class="arc hidden" id="path-124" d="M-1374.6748626084582,-195.45145717649785A1388.5,1388.5 0 0,1 -1374.4195760110358,-197.2386348503873L-1281.8677356386688,-183.95681104159277A1295,1295 0 0,0 -1282.1058315289547,-182.289979865729Z" fill-rule="evenodd" style="fill: rgb(113, 96, 132);" fill-opacity="0.2"/><path class="arc hidden" id="path-125" d="M-1374.4195760110358,-197.2386348503873A1388.5,1388.5 0 0,1 -1374.161965953174,-199.02547909176823L-1281.6274727471086,-185.62333123791132A1295,1295 0 0,0 -1281.8677356386688,-183.95681104159277Z" fill-rule="evenodd" style="fill: white;" fill-opacity="0.2"/><path class="arc hidden" id="path-126" d="M-1282.617146471238,-185.7666697176306A1296,1296 0 0,1 -1282.3745297803316,-187.4341627630172L-1189.8575401704081,-173.91171352046928A1202.5,1202.5 0 0,0 -1190.0826532651724,-172.36452186377377Z" fill-rule="evenodd" style="fill: white;" fill-opacity="0.2"/><path class="arc hidden" id="path-127" d="M-1190.8470266903003,-174.05633864605804A1203.5,1203.5 0 0,1 -1190.7336215929283,-174.8304676198897L-1098.225442433029,-161.24787624269013A1110,1110 0 0,0 -1098.3300370803768,-160.5338894035101Z" fill-rule="evenodd" style="fill: white;" fill-opacity="0.2"/><path class="arc hidden" id="path-128" d="M-1099.214834723509,-161.3931445996655A1111,1111 0 0,1 -1098.7914340963805,-164.25097977308755L-1006.3188876625268,-150.4278775149564A1017.5,1017.5 0 0,0 -1006.7066555636098,-147.81055322246593Z" fill-rule="evenodd" style="fill: white;" fill-opacity="0.2"/><path class="arc hidden" id="path-129" d="M-1007.3078988543326,-150.57571818081968A1018.5,1018.5 0 0,1 -1007.2097972156538,-151.23053393016093L-914.7462566759742,-137.34731849327332A925,925 0 0,0 -914.8353524204788,-136.75261592268848Z" fill-rule="evenodd" style="fill: white;" fill-opacity="0.2"/><path class="arc hidden" id="path-130" d="M-824.260545880459,-123.76107023150628A833.5,833.5 0 0,1 -824.1799150369093,-124.29689316211012L-731.7254194688817,-110.35357041387101A740,740 0 0,0 -731.7970053407794,-109.87785479461866Z" fill-rule="evenodd" style="fill: rgb(46, 96, 147);" fill-opacity="0.2"/><path class="arc hidden" id="path-131" d="M-824.1799150369093,-124.29689316211012A833.5,833.5 0 0,1 -823.9359327251328,-125.90404586178052L-731.5088064986182,-111.7804366379335A740,740 0 0,0 -731.7254194688817,-110.35357041387101Z" fill-rule="evenodd" style="fill: white;" fill-opacity="0.2"/><path class="arc hidden" id="path-132" d="M-732.4973319128056,-111.93149128203882A741,741 0 0,1 -732.2776400726666,-113.35985995759741L-639.8782347463585,-99.05601797914213A647.5,647.5 0 0,0 -640.0702056862909,-97.80788205819182Z" fill-rule="evenodd" style="fill: rgb(52, 80, 123);" fill-opacity="0.2"/><path class="arc hidden" id="path-133" d="M-823.9359327251328,-125.90404586178052A833.5,833.5 0 0,1 -823.6888164650036,-127.51071966890342L-731.2894111386954,-113.20687769044815A740,740 0 0,0 -731.5088064986182,-111.7804366379335Z" fill-rule="evenodd" style="fill: rgb(53, 82, 125);" fill-opacity="0.2"/><path class="arc hidden" id="path-134" d="M-915.3745335374601,-139.87660044152219A926,926 0 0,1 -915.0999928573405,-141.66157938020945L-822.7005875310324,-127.35773740175416A832.5,832.5 0 0,0 -822.9474073109456,-125.7529912176752Z" fill-rule="evenodd" style="fill: rgb(55, 84, 128);" fill-opacity="0.2"/><path class="arc hidden" id="path-135" d="M-1006.8131343497874,-153.8491550212639A1018.5,1018.5 0 0,1 -1006.5111692496774,-155.81243909151544L-914.1117639233693,-141.50859711306018A925,925 0 0,0 -914.3860081232729,-139.72554579741688Z" fill-rule="evenodd" style="fill: rgb(56, 85, 131);" fill-opacity="0.2"/><path class="arc hidden" id="path-136" d="M-1098.2517351621148,-167.82170960100558A1111,1111 0 0,1 -1097.9223456420143,-169.96329880282147L-1005.5229403157063,-155.6594568243662A1017.5,1017.5 0 0,0 -1005.8246089356002,-153.69810037715857Z" fill-rule="evenodd" style="fill: rgb(57, 87, 133);" fill-opacity="0.2"/><path class="arc hidden" id="path-137" d="M-1189.690335974442,-181.79426418074726A1203.5,1203.5 0 0,1 -1189.3335220343513,-184.1141585141275L-1096.9341167080431,-169.81031653567223A1110,1110 0 0,0 -1097.2632097479275,-167.67065495690025Z" fill-rule="evenodd" style="fill: rgb(58, 89, 136);" fill-opacity="0.2"/><path class="arc hidden" id="path-138" d="M-732.2776400726666,-113.35985995759741A741,741 0 0,1 -731.0589302584989,-120.97041162738618L-638.8133027562457,-105.70626387143395A647.5,647.5 0 0,0 -639.8782347463585,-99.05601797914213Z" fill-rule="evenodd" style="fill: white;" fill-opacity="0.2"/><path class="arc hidden" id="path-139" d="M-639.7998870076066,-105.86951678861048A648.5,648.5 0 0,1 -639.5921940635772,-107.1171101782509L-547.3765114961993,-91.67308581176445A555,555 0 0,0 -547.5542595053533,-90.60536903265816Z" fill-rule="evenodd" style="fill: white;" fill-opacity="0.2"/><path class="arc hidden" id="path-140" d="M-548.3627754808772,-91.83826254295683A556,556 0 0,1 -548.3029558508742,-92.19473198179114L-456.0973328795491,-76.69076176542877A462.5,462.5 0 0,0 -456.1470929134995,-76.39423817647038Z" fill-rule="evenodd" style="fill: white;" fill-opacity="0.2"/><path class="arc" id="path-141" d="M-365.86402269905454,-61.51842727561962A371,371 0 0,1 -365.8239524590568,-61.75626127959611L-273.6284280522595,-46.19235176573563A277.5,277.5 0 0,0 -273.6583997277295,-46.01445705925726Z" fill-rule="evenodd" style="fill: rgb(63, 68, 97);" fill-opacity="1"/><path class="arc hidden" id="path-142" d="M-457.0834892749644,-76.85657962870538A463.5,463.5 0 0,1 -457.0334284764766,-77.15371186817465L-364.83790406967927,-61.58980235431418A370,370 0 0,0 -364.8778663036393,-61.352609412343014Z" fill-rule="evenodd" style="fill: rgb(64, 69, 99);" fill-opacity="0.2"/><path class="arc hidden" id="path-143" d="M-548.3029558508742,-92.19473198179114A556,556 0 0,1 -548.2429044938965,-92.55116245675319L-456.0473800870991,-76.98725294289272A462.5,462.5 0 0,0 -456.0973328795491,-76.69076176542877Z" fill-rule="evenodd" style="fill: rgb(66, 71, 101);" fill-opacity="0.2"/><path class="arc hidden" id="path-144" d="M-639.522422426784,-107.53288433487688A648.5,648.5 0 0,1 -639.4523805113163,-107.94861304533174L-547.256856104519,-92.38470353147126A555,555 0 0,0 -547.316799455459,-92.02891411851452Z" fill-rule="evenodd" style="fill: rgb(67, 72, 103);" fill-opacity="0.2"/><path class="arc hidden" id="path-145" d="M-730.7418890026938,-122.87103668796264A741,741 0 0,1 -730.661856528736,-123.34606363391029L-638.4663321219388,-107.78215412004981A647.5,647.5 0 0,0 -638.5362660313688,-107.36706647160028Z" fill-rule="evenodd" style="fill: rgb(68, 74, 105);" fill-opacity="0.2"/><path class="arc hidden" id="path-146" d="M-821.9613555786037,-138.2091890410484A833.5,833.5 0 0,1 -821.8713325461559,-138.74351422248884L-729.6758081393585,-123.17960470862836A740,740 0 0,0 -729.7557326072786,-122.70521882468603Z" fill-rule="evenodd" style="fill: rgb(70, 75, 107);" fill-opacity="0.2"/><path class="arc hidden" id="path-147" d="M-913.1808221545135,-153.54734139413415A926,926 0 0,1 -913.0808085635757,-154.14096481106736L-820.8852841567784,-138.5770552972069A832.5,832.5 0 0,0 -820.9751991831885,-138.0433711777718Z" fill-rule="evenodd" style="fill: rgb(71, 77, 109);" fill-opacity="0.2"/><path class="arc hidden" id="path-148" d="M-1004.4002887304233,-168.8854937472199A1018.5,1018.5 0 0,1 -1004.2902845809956,-169.5384153996459L-912.0947601741982,-153.97450588578545A925,925 0 0,0 -912.1946657590983,-153.38152353085755Z" fill-rule="evenodd" style="fill: rgb(73, 78, 112);" fill-opacity="0.2"/><path class="arc hidden" id="path-149" d="M-1095.6197553063332,-184.22364610030564A1111,1111 0 0,1 -1095.4997605984154,-184.93586598822446L-1003.3042361916181,-169.371956474364A1017.5,1017.5 0 0,0 -1003.414132335008,-168.7196758839433Z" fill-rule="evenodd" style="fill: rgb(74, 80, 114);" fill-opacity="0.2"/><path class="arc" id="path-150" d="M-365.8239524590568,-61.75626127959611A371,371 0 0,1 -365.78372761241894,-61.99406918378333L-273.5983407343565,-46.37022695013443A277.5,277.5 0 0,0 -273.6284280522595,-46.19235176573563Z" fill-rule="evenodd" style="fill: rgb(49, 54, 87);" fill-opacity="1"/><path class="arc hidden" id="path-151" d="M-457.0334284764766,-77.15371186817465A463.5,463.5 0 0,1 -456.98317452387107,-77.45081150049481L-364.7977876458086,-61.82696926684591A370,370 0 0,0 -364.83790406967927,-61.58980235431418Z" fill-rule="evenodd" style="fill: rgb(50, 55, 89);" fill-opacity="0.2"/><path class="arc hidden" id="path-152" d="M-548.2429044938965,-92.55116245675319A556,556 0 0,1 -548.1826214353232,-92.90755381720629L-455.9972345572608,-77.28371158355739A462.5,462.5 0 0,0 -456.0473800870991,-76.98725294289272Z" fill-rule="evenodd" style="fill: rgb(52, 56, 90);" fill-opacity="0.2"/><path class="arc hidden" id="path-153" d="M-639.4523805113163,-107.94861304533174A648.5,648.5 0 0,1 -639.3820683467754,-108.36429613391776L-547.196681468713,-92.74045390026886A555,555 0 0,0 -547.256856104519,-92.38470353147126Z" fill-rule="evenodd" style="fill: rgb(53, 57, 92);" fill-opacity="0.2"/><path class="arc hidden" id="path-154" d="M-730.661856528736,-123.34606363391029A741,741 0 0,1 -730.5815152582276,-123.82103845062925L-638.3961283801651,-108.19719621698034A647.5,647.5 0 0,0 -638.4663321219388,-107.78215412004981Z" fill-rule="evenodd" style="fill: rgb(54, 58, 94);" fill-opacity="0.2"/><path class="arc hidden" id="path-155" d="M-821.8713325461559,-138.74351422248884A833.5,833.5 0 0,1 -821.7809621696797,-139.27778076734072L-729.5955752916173,-123.65393853369181A740,740 0 0,0 -729.6758081393585,-123.17960470862836Z" fill-rule="evenodd" style="fill: rgb(55, 60, 96);" fill-opacity="0.2"/><path class="arc hidden" id="path-156" d="M-913.0808085635757,-154.14096481106736A926,926 0 0,1 -912.9804090811318,-154.7345230840522L-820.7950222030694,-139.1106808504033A832.5,832.5 0 0,0 -820.8852841567784,-138.5770552972069Z" fill-rule="evenodd" style="fill: rgb(56, 61, 98);" fill-opacity="0.2"/><path class="arc hidden" id="path-157" d="M-1004.2902845809956,-169.5384153996459A1018.5,1018.5 0 0,1 -1004.1798559925841,-170.19126540076368L-911.9944691145216,-154.56742316711478A925,925 0 0,0 -912.0947601741982,-153.97450588578545Z" fill-rule="evenodd" style="fill: rgb(57, 62, 100);" fill-opacity="0.2"/><path class="arc" id="path-158" d="M-365.78372761241894,-61.99406918378333A371,371 0 0,1 -365.74334817614096,-62.23185088767754L-273.56813778673614,-46.54808253727902A277.5,277.5 0 0,0 -273.5983407343565,-46.37022695013443Z" fill-rule="evenodd" style="fill: white;" fill-opacity="1"/><path class="arc" id="path-159" d="M-274.5539689138956,-46.7158233752512A278.5,278.5 0 0,1 -274.43156155854734,-47.42961122059991L-182.297446636737,-31.506204940075342A185,185 0 0,0 -182.37875852449076,-31.03205502485268Z" fill-rule="evenodd" style="fill: rgb(200, 153, 206);" fill-opacity="1"/><path class="arc" id="path-160" d="M-365.74334817614096,-62.23185088767754A371,371 0 0,1 -365.70281416728824,-62.46960629078605L-273.5378192221631,-46.72591845200304A277.5,277.5 0 0,0 -273.56813778673614,-46.54808253727902Z" fill-rule="evenodd" style="fill: rgb(149, 138, 192);" fill-opacity="1"/><path class="arc hidden" id="path-161" d="M-456.93272743838634,-77.74787840010387A463.5,463.5 0 0,1 -456.8820872413426,-78.04491244145373L-364.7170922962174,-62.30122460267072A370,370 0 0,0 -364.7575170489815,-62.06411004970536Z" fill-rule="evenodd" style="fill: rgb(153, 143, 194);" fill-opacity="0.2"/><path class="arc hidden" id="path-162" d="M-548.1221067006318,-93.26390591253022A556,556 0 0,1 -548.061360315397,-93.6202185921214L-455.8963653702718,-77.8765307533384A462.5,462.5 0 0,0 -455.9468963112269,-77.5801375621317Z" fill-rule="evenodd" style="fill: rgb(157, 147, 196);" fill-opacity="0.2"/><path class="arc hidden" id="path-163" d="M-639.3114859628771,-108.77993342495655A648.5,648.5 0 0,1 -639.2406333894513,-109.19552474278909L-547.0756384443262,-93.45183690400609A555,555 0 0,0 -547.1362755734723,-93.09616507455804Z" fill-rule="evenodd" style="fill: rgb(162, 152, 199);" fill-opacity="0.2"/><path class="arc hidden" id="path-164" d="M-730.5008652251225,-124.2959609373829A741,741 0 0,1 -730.4199064635056,-124.77083089345678L-638.2549115183805,-109.02714305467377A647.5,647.5 0 0,0 -638.3256548357177,-108.61219258698438Z" fill-rule="evenodd" style="fill: rgb(166, 156, 201);" fill-opacity="0.2"/><path class="arc hidden" id="path-165" d="M-821.6902444873679,-139.81198844980923A833.5,833.5 0 0,1 -821.59917953756,-140.34613704412445L-729.4341845924348,-124.60244920534144A740,740 0 0,0 -729.515034097963,-124.12822009941073Z" fill-rule="evenodd" style="fill: rgb(170, 161, 204);" fill-opacity="0.2"/><path class="arc" id="path-166" d="M-365.70281416728824,-62.46960629078605A371,371 0 0,1 -365.6621256029916,-62.707335292627306L-273.5073850534506,-46.90373461914846A277.5,277.5 0 0,0 -273.5378192221631,-46.72591845200304Z" fill-rule="evenodd" style="fill: rgb(219, 170, 193);" fill-opacity="1"/><path class="arc hidden" id="path-167" d="M-456.8820872413426,-78.04491244145373A463.5,463.5 0 0,1 -456.8312539541418,-78.34191349901012L-364.67651340460077,-62.53831282553127A370,370 0 0,0 -364.7170922962174,-62.30122460267072Z" fill-rule="evenodd" style="fill: rgb(222, 175, 197);" fill-opacity="0.2"/><path class="arc hidden" id="path-168" d="M-548.061360315397,-93.6202185921214A556,556 0 0,1 -548.000382305292,-93.97649170539295L-455.845641755751,-78.17289103191409A462.5,462.5 0 0,0 -455.8963653702718,-77.8765307533384Z" fill-rule="evenodd" style="fill: rgb(224, 181, 201);" fill-opacity="0.2"/><path class="arc" id="path-169" d="M-365.6621256029916,-62.707335292627306A371,371 0 0,1 -365.5802848769158,-63.18271369063758L-273.4461699551055,-47.25930741011302A277.5,277.5 0 0,0 -273.5073850534506,-46.90373461914846Z" fill-rule="evenodd" style="fill: white;" fill-opacity="1"/><path class="arc" id="path-170" d="M-274.43156155854734,-47.42961122059991A278.5,278.5 0 0,1 -274.33853818743336,-47.964741896336534L-182.23565373312448,-31.86167774083396A185,185 0 0,0 -182.297446636737,-31.506204940075342Z" fill-rule="evenodd" style="fill: white;" fill-opacity="1"/><path class="arc" id="path-171" d="M-183.22071132087106,-32.03390302591971A186,186 0 0,1 -183.19984746846728,-32.15300744145588L-91.10745102598507,-15.990070905025101A92.5,92.5 0 0,0 -91.11782686656223,-15.93083887041706Z" fill-rule="evenodd" style="fill: rgb(221, 141, 167);" fill-opacity="1"/><path class="arc" id="path-172" d="M-274.3385381874333,-47.964741896336776A278.5,278.5 0 0,1 -274.30729849445237,-48.143078346480976L-182.21490205197014,-31.980141810050203A185,185 0 0,0 -182.23565373312445,-31.86167774083412Z" fill-rule="evenodd" style="fill: rgb(222, 146, 172);" fill-opacity="1"/><path class="arc" id="path-173" d="M-365.4563650539955,-63.89558076675383A371,371 0 0,1 -365.41474952043745,-64.13314925150608L-273.32235307795526,-47.9702127150753A277.5,277.5 0 0,0 -273.3534805996867,-47.79251661125118Z" fill-rule="evenodd" style="fill: rgb(224, 152, 176);" fill-opacity="1"/><path class="arc" id="path-174" d="M-183.19984746846728,-32.15300744145588A186,186 0 0,1 -3.416764569621115e-14,-186L-1.6991974338169524e-14,-92.5A92.5,92.5 0 0,0 -91.10745102598507,-15.990070905025101Z" fill-rule="evenodd" style="fill: white;" fill-opacity="1"/><text style="fill: rgb(0, 0, 0); fill-opacity: 1; pointer-events: none; font-size: 12px;" dy=".2em" transform="rotate(90)translate(0)rotate(0)" dx="4px" text-anchor="start">Organism</text><text style="fill: rgb(0, 0, 0); fill-opacity: 1; pointer-events: none; font-size: 12px;" dy=".2em" transform="rotate(49.02741852043454)translate(92.5)rotate(0)" dx="4px" text-anchor="start">Bacteria</text><text style="fill: rgb(0, 0, 0); fill-opacity: 1; pointer-events: none; font-size: 12px;" dy=".2em" transform="rotate(-89.96275219865494)translate(185)rotate(0)" dx="4px" text-anchor="start">Acidobacteria</text><text style="fill: rgb(0, 0, 0); fill-opacity: 1; pointer-events: none; font-size: 8px;" dy=".2em" transform="rotate(-89.96275219865494)translate(277.5)rotate(0)" dx="4px" text-anchor="start">Acidobacteria bacterium</text><text style="fill: rgb(0, 0, 0); fill-opacity: 1; pointer-events: none; font-size: 12px;" dy=".2em" transform="rotate(-89.90688049663736)translate(185)rotate(0)" dx="4px" text-anchor="start">Actinobacteria</text><text style="fill: rgb(0, 0, 0); fill-opacity: 1; pointer-events: none; font-size: 12px;" dy=".2em" transform="rotate(-89.90688049663736)translate(277.5)rotate(0)" dx="4px" text-anchor="start">Actinobacteria</text><text style="fill: rgb(0, 0, 0); fill-opacity: 0.000001; pointer-events: none; font-size: 10px; visibility: hidden;" dy=".2em" transform="rotate(-89.90688049663736)translate(370)rotate(0)" dx="4px" text-anchor="start">Streptomycetales</text><text style="fill: rgb(0, 0, 0); fill-opacity: 0.000001; pointer-events: none; font-size: 9px; visibility: hidden;" dy=".2em" transform="rotate(-89.90688049663736)translate(462.5)rotate(0)" dx="4px" text-anchor="start">Streptomycetaceae</text><text style="fill: rgb(0, 0, 0); fill-opacity: 0.000001; pointer-events: none; font-size: 12px; visibility: hidden;" dy=".2em" transform="rotate(-89.90688049663736)translate(555)rotate(0)" dx="4px" text-anchor="start">Streptomyces</text><text style="fill: rgb(0, 0, 0); fill-opacity: 1; pointer-events: none; font-size: 12px;" dy=".2em" transform="rotate(-89.83238489394724)translate(185)rotate(0)" dx="4px" text-anchor="start">Bacteroidetes</text><text style="fill: rgb(0, 0, 0); fill-opacity: 1; pointer-events: none; font-size: 12px;" dy=".2em" transform="rotate(-89.85100879461976)translate(277.5)rotate(0)" dx="4px" text-anchor="start">Bacteroidia</text><text style="fill: rgb(0, 0, 0); fill-opacity: 0.000001; pointer-events: none; font-size: 12px; visibility: hidden;" dy=".2em" transform="rotate(-89.85100879461976)translate(370)rotate(0)" dx="4px" text-anchor="start">Bacteroidales</text><text style="fill: rgb(0, 0, 0); fill-opacity: 0.000001; pointer-events: none; font-size: 8px; visibility: hidden;" dy=".2em" transform="rotate(-89.8696326952923)translate(462.5)rotate(0)" dx="4px" text-anchor="start">Bacteroidales bacterium</text><text style="fill: rgb(0, 0, 0); fill-opacity: 0.000001; pointer-events: none; font-size: 12px; visibility: hidden;" dy=".2em" transform="rotate(-89.83238489394724)translate(462.5)rotate(0)" dx="4px" text-anchor="start"/><text style="fill: rgb(0, 0, 0); fill-opacity: 1; pointer-events: none; font-size: 12px;" dy=".2em" transform="rotate(-89.79513709260218)translate(277.5)rotate(0)" dx="4px" text-anchor="start"/><text style="fill: rgb(0, 0, 0); fill-opacity: 1; pointer-events: none; font-size: 12px;" dy=".2em" transform="rotate(32.67563372995342)translate(185)rotate(0)" dx="4px" text-anchor="start">Cyanobacteria</text><text style="fill: rgb(0, 0, 0); fill-opacity: 1; pointer-events: none; font-size: 12px;" dy=".2em" transform="rotate(-89.75788929125711)translate(277.5)rotate(0)" dx="4px" text-anchor="start">Pleurocapsales</text><text style="fill: rgb(0, 0, 0); fill-opacity: 0.000001; pointer-events: none; font-size: 9px; visibility: hidden;" dy=".2em" transform="rotate(-89.75788929125711)translate(370)rotate(0)" dx="4px" text-anchor="start">Dermocarpellaceae</text><text style="fill: rgb(0, 0, 0); fill-opacity: 0.000001; pointer-events: none; font-size: 12px; visibility: hidden;" dy=".2em" transform="rotate(-89.75788929125711)translate(462.5)rotate(0)" dx="4px" text-anchor="start">Stanieria</text><text style="fill: rgb(0, 0, 0); fill-opacity: 1; pointer-events: none; font-size: 10px;" dy=".2em" transform="rotate(30.79461976202795)translate(277.5)rotate(0)" dx="4px" text-anchor="start">Synechococcales</text><text style="fill: rgb(0, 0, 0); fill-opacity: 0.000001; pointer-events: none; font-size: 10px; visibility: hidden;" dy=".2em" transform="rotate(-89.70201758923952)translate(370)rotate(0)" dx="4px" text-anchor="start">Leptolyngbyaceae</text><text style="fill: rgb(0, 0, 0); fill-opacity: 0.000001; pointer-events: none; font-size: 12px; visibility: hidden;" dy=".2em" transform="rotate(-89.72064148991205)translate(462.5)rotate(0)" dx="4px" text-anchor="start">Leptolyngbya</text><text style="fill: rgb(0, 0, 0); fill-opacity: 0.000001; pointer-events: none; font-size: 12px; visibility: hidden;" dy=".2em" transform="rotate(-89.683393688567)translate(462.5)rotate(0)" dx="4px" text-anchor="start">Phormidesmis</text><text style="fill: rgb(0, 0, 0); fill-opacity: 0.000001; pointer-events: none; font-size: 8px; visibility: hidden;" dy=".2em" transform="rotate(-89.683393688567)translate(555)rotate(0)" dx="4px" text-anchor="start">Phormidesmis priestleyi</text><text style="fill: rgb(0, 0, 0); fill-opacity: 0.000001; pointer-events: none; font-size: 12px; visibility: hidden;" dy=".2em" transform="rotate(27.181583031557167)translate(370)rotate(0)" dx="4px" text-anchor="start">Prochloraceae</text><text style="fill: rgb(0, 0, 0); fill-opacity: 0.000001; pointer-events: none; font-size: 11px; visibility: hidden;" dy=".2em" transform="rotate(27.181583031557167)translate(462.5)rotate(0)" dx="4px" text-anchor="start">Prochlorococcus</text><text style="fill: rgb(0, 0, 0); fill-opacity: 0.000001; pointer-events: none; font-size: 7px; visibility: hidden;" dy=".2em" transform="rotate(27.181583031557167)translate(555)rotate(0)" dx="4px" text-anchor="start">Prochlorococcus marinus</text><text style="fill: rgb(0, 0, 0); fill-opacity: 0.000001; pointer-events: none; font-size: 5px; visibility: hidden;" dy=".2em" transform="rotate(-17.273667873771345)translate(647.5)rotate(0)" dx="4px" text-anchor="start">Prochlorococcus marinus subsp. pastoris</text><text style="fill: rgb(0, 0, 0); fill-opacity: 0.000001; pointer-events: none; font-size: 12px; visibility: hidden;" dy=".2em" transform="rotate(99.57268494568032)translate(647.5)rotate(-180)" dx="-4px" text-anchor="end"/><text style="fill: rgb(0, 0, 0); fill-opacity: 0.000001; pointer-events: none; font-size: 9px; visibility: hidden;" dy=".2em" transform="rotate(144.1024314536989)translate(370)rotate(-180)" dx="-4px" text-anchor="end">Synechococcaceae</text><text style="fill: rgb(0, 0, 0); fill-opacity: 0.000001; pointer-events: none; font-size: 12px; visibility: hidden;" dy=".2em" transform="rotate(144.1024314536989)translate(462.5)rotate(-180)" dx="-4px" text-anchor="end">Synechococcus</text><text style="fill: rgb(0, 0, 0); fill-opacity: 0.000001; pointer-events: none; font-size: 12px; visibility: hidden;" dy=".2em" transform="rotate(147.75271598551473)translate(370)rotate(-180)" dx="-4px" text-anchor="end"/><text style="fill: rgb(0, 0, 0); fill-opacity: 1; pointer-events: none; font-size: 12px;" dy=".2em" transform="rotate(153.2281427832385)translate(277.5)rotate(-180)" dx="-4px" text-anchor="end"/><text style="fill: rgb(0, 0, 0); fill-opacity: 1; pointer-events: none; font-size: 12px;" dy=".2em" transform="rotate(155.20227625452662)translate(185)rotate(-180)" dx="-4px" text-anchor="end">Firmicutes</text><text style="fill: rgb(0, 0, 0); fill-opacity: 1; pointer-events: none; font-size: 12px;" dy=".2em" transform="rotate(155.146404552509)translate(277.5)rotate(-180)" dx="-4px" text-anchor="end">Bacilli</text><text style="fill: rgb(0, 0, 0); fill-opacity: 0.000001; pointer-events: none; font-size: 12px; visibility: hidden;" dy=".2em" transform="rotate(155.146404552509)translate(370)rotate(-180)" dx="-4px" text-anchor="end">Bacillales</text><text style="fill: rgb(0, 0, 0); fill-opacity: 0.000001; pointer-events: none; font-size: 11px; visibility: hidden;" dy=".2em" transform="rotate(155.146404552509)translate(462.5)rotate(-180)" dx="-4px" text-anchor="end">Paenibacillaceae</text><text style="fill: rgb(0, 0, 0); fill-opacity: 0.000001; pointer-events: none; font-size: 12px; visibility: hidden;" dy=".2em" transform="rotate(155.146404552509)translate(555)rotate(-180)" dx="-4px" text-anchor="end">Paenibacillus</text><text style="fill: rgb(0, 0, 0); fill-opacity: 0.000001; pointer-events: none; font-size: 7px; visibility: hidden;" dy=".2em" transform="rotate(155.146404552509)translate(647.5)rotate(-180)" dx="-4px" text-anchor="end">Paenibacillus cellulosilyticus</text><text style="fill: rgb(0, 0, 0); fill-opacity: 1; pointer-events: none; font-size: 12px;" dy=".2em" transform="rotate(155.2022762545266)translate(277.5)rotate(-180)" dx="-4px" text-anchor="end">Clostridia</text><text style="fill: rgb(0, 0, 0); fill-opacity: 0.000001; pointer-events: none; font-size: 12px; visibility: hidden;" dy=".2em" transform="rotate(155.2022762545266)translate(370)rotate(-180)" dx="-4px" text-anchor="end">Clostridiales</text><text style="fill: rgb(0, 0, 0); fill-opacity: 0.000001; pointer-events: none; font-size: 12px; visibility: hidden;" dy=".2em" transform="rotate(155.18365235385406)translate(462.5)rotate(-180)" dx="-4px" text-anchor="end">Clostridiaceae</text><text style="fill: rgb(0, 0, 0); fill-opacity: 0.000001; pointer-events: none; font-size: 12px; visibility: hidden;" dy=".2em" transform="rotate(155.18365235385406)translate(555)rotate(-180)" dx="-4px" text-anchor="end">Clostridium</text><text style="fill: rgb(0, 0, 0); fill-opacity: 0.000001; pointer-events: none; font-size: 11px; visibility: hidden;" dy=".2em" transform="rotate(155.22090015519913)translate(462.5)rotate(-180)" dx="-4px" text-anchor="end">Lachnospiraceae</text><text style="fill: rgb(0, 0, 0); fill-opacity: 0.000001; pointer-events: none; font-size: 7px; visibility: hidden;" dy=".2em" transform="rotate(155.22090015519913)translate(555)rotate(-180)" dx="-4px" text-anchor="end">Lachnospiraceae bacterium</text><text style="fill: rgb(0, 0, 0); fill-opacity: 1; pointer-events: none; font-size: 12px;" dy=".2em" transform="rotate(155.2581479565442)translate(277.5)rotate(-180)" dx="-4px" text-anchor="end">Tissierellia</text><text style="fill: rgb(0, 0, 0); fill-opacity: 0.000001; pointer-events: none; font-size: 12px; visibility: hidden;" dy=".2em" transform="rotate(155.2581479565442)translate(370)rotate(-180)" dx="-4px" text-anchor="end">Tissierellales</text><text style="fill: rgb(0, 0, 0); fill-opacity: 0.000001; pointer-events: none; font-size: 11px; visibility: hidden;" dy=".2em" transform="rotate(155.2581479565442)translate(462.5)rotate(-180)" dx="-4px" text-anchor="end">Peptoniphilaceae</text><text style="fill: rgb(0, 0, 0); fill-opacity: 0.000001; pointer-events: none; font-size: 12px; visibility: hidden;" dy=".2em" transform="rotate(155.2581479565442)translate(555)rotate(-180)" dx="-4px" text-anchor="end">Peptoniphilus</text><text style="fill: rgb(0, 0, 0); fill-opacity: 1; pointer-events: none; font-size: 12px;" dy=".2em" transform="rotate(155.31401965856176)translate(185)rotate(-180)" dx="-4px" text-anchor="end">Nitrospinae</text><text style="fill: rgb(0, 0, 0); fill-opacity: 1; pointer-events: none; font-size: 12px;" dy=".2em" transform="rotate(155.31401965856176)translate(277.5)rotate(-180)" dx="-4px" text-anchor="end">Nitrospinia</text><text style="fill: rgb(0, 0, 0); fill-opacity: 0.000001; pointer-events: none; font-size: 12px; visibility: hidden;" dy=".2em" transform="rotate(155.31401965856176)translate(370)rotate(-180)" dx="-4px" text-anchor="end">Nitrospinales</text><text style="fill: rgb(0, 0, 0); fill-opacity: 0.000001; pointer-events: none; font-size: 12px; visibility: hidden;" dy=".2em" transform="rotate(155.31401965856176)translate(462.5)rotate(-180)" dx="-4px" text-anchor="end">Nitrospinaceae</text><text style="fill: rgb(0, 0, 0); fill-opacity: 0.000001; pointer-events: none; font-size: 12px; visibility: hidden;" dy=".2em" transform="rotate(155.31401965856176)translate(555)rotate(-180)" dx="-4px" text-anchor="end">Nitrospina</text><text style="fill: rgb(0, 0, 0); fill-opacity: 1; pointer-events: none; font-size: 12px;" dy=".2em" transform="rotate(155.6306259699948)translate(185)rotate(-180)" dx="-4px" text-anchor="end">Proteobacteria</text><text style="fill: rgb(0, 0, 0); fill-opacity: 1; pointer-events: none; font-size: 9px;" dy=".2em" transform="rotate(155.38851526125188)translate(277.5)rotate(-180)" dx="-4px" text-anchor="end">Alphaproteobacteria</text><text style="fill: rgb(0, 0, 0); fill-opacity: 0.000001; pointer-events: none; font-size: 10px; visibility: hidden;" dy=".2em" transform="rotate(155.38851526125188)translate(370)rotate(-180)" dx="-4px" text-anchor="end">Sphingomonadales</text><text style="fill: rgb(0, 0, 0); fill-opacity: 0.000001; pointer-events: none; font-size: 9px; visibility: hidden;" dy=".2em" transform="rotate(155.38851526125188)translate(462.5)rotate(-180)" dx="-4px" text-anchor="end">Sphingomonadaceae</text><text style="fill: rgb(0, 0, 0); fill-opacity: 0.000001; pointer-events: none; font-size: 12px; visibility: hidden;" dy=".2em" transform="rotate(155.36989136057937)translate(555)rotate(-180)" dx="-4px" text-anchor="end">Sphingobium</text><text style="fill: rgb(0, 0, 0); fill-opacity: 0.000001; pointer-events: none; font-size: 12px; visibility: hidden;" dy=".2em" transform="rotate(155.40713916192445)translate(555)rotate(-180)" dx="-4px" text-anchor="end">Sphingomonas</text><text style="fill: rgb(0, 0, 0); fill-opacity: 1; pointer-events: none; font-size: 10px;" dy=".2em" transform="rotate(155.4816347646146)translate(277.5)rotate(-180)" dx="-4px" text-anchor="end">Betaproteobacteria</text><text style="fill: rgb(0, 0, 0); fill-opacity: 0.000001; pointer-events: none; font-size: 12px; visibility: hidden;" dy=".2em" transform="rotate(155.4816347646146)translate(370)rotate(-180)" dx="-4px" text-anchor="end">Burkholderiales</text><text style="fill: rgb(0, 0, 0); fill-opacity: 0.000001; pointer-events: none; font-size: 12px; visibility: hidden;" dy=".2em" transform="rotate(155.4443869632695)translate(462.5)rotate(-180)" dx="-4px" text-anchor="end">Alcaligenaceae</text><text style="fill: rgb(0, 0, 0); fill-opacity: 0.000001; pointer-events: none; font-size: 12px; visibility: hidden;" dy=".2em" transform="rotate(155.4443869632695)translate(555)rotate(-180)" dx="-4px" text-anchor="end">Castellaniella</text><text style="fill: rgb(0, 0, 0); fill-opacity: 0.000001; pointer-events: none; font-size: 10px; visibility: hidden;" dy=".2em" transform="rotate(155.48163476461457)translate(462.5)rotate(-180)" dx="-4px" text-anchor="end">Burkholderiaceae</text><text style="fill: rgb(0, 0, 0); fill-opacity: 0.000001; pointer-events: none; font-size: 7px; visibility: hidden;" dy=".2em" transform="rotate(155.48163476461457)translate(555)rotate(-180)" dx="-4px" text-anchor="end">Burkholderiaceae bacterium</text><text style="fill: rgb(0, 0, 0); fill-opacity: 0.000001; pointer-events: none; font-size: 12px; visibility: hidden;" dy=".2em" transform="rotate(155.5188825659596)translate(462.5)rotate(-180)" dx="-4px" text-anchor="end">Thiomonas</text><text style="fill: rgb(238, 238, 238); fill-opacity: 1; pointer-events: none; font-size: 8px;" dy=".2em" transform="rotate(155.64924987066732)translate(277.5)rotate(-180)" dx="-4px" text-anchor="end">Gammaproteobacteria</text><text style="fill: rgb(238, 238, 238); fill-opacity: 0.000001; pointer-events: none; font-size: 11px; visibility: hidden;" dy=".2em" transform="rotate(155.5747542679772)translate(370)rotate(-180)" dx="-4px" text-anchor="end">Alteromonadales</text><text style="fill: rgb(238, 238, 238); fill-opacity: 0.000001; pointer-events: none; font-size: 7px; visibility: hidden;" dy=".2em" transform="rotate(155.5747542679772)translate(462.5)rotate(-180)" dx="-4px" text-anchor="end">Pseudoalteromonadaceae</text><text style="fill: rgb(238, 238, 238); fill-opacity: 0.000001; pointer-events: none; font-size: 9px; visibility: hidden;" dy=".2em" transform="rotate(155.5747542679772)translate(555)rotate(-180)" dx="-4px" text-anchor="end">Pseudoalteromonas</text><text style="fill: rgb(0, 0, 0); fill-opacity: 0.000001; pointer-events: none; font-size: 7px; visibility: hidden;" dy=".2em" transform="rotate(155.55613036730466)translate(647.5)rotate(-180)" dx="-4px" text-anchor="end">Pseudoalteromonas citrea</text><text style="fill: rgb(238, 238, 238); fill-opacity: 0.000001; pointer-events: none; font-size: 6px; visibility: hidden;" dy=".2em" transform="rotate(155.5933781686497)translate(647.5)rotate(-180)" dx="-4px" text-anchor="end">Pseudoalteromonas luteoviolacea</text><text style="fill: rgb(0, 0, 0); fill-opacity: 0.000001; pointer-events: none; font-size: 11px; visibility: hidden;" dy=".2em" transform="rotate(155.6306259699948)translate(370)rotate(-180)" dx="-4px" text-anchor="end">Enterobacterales</text><text style="fill: rgb(0, 0, 0); fill-opacity: 0.000001; pointer-events: none; font-size: 11px; visibility: hidden;" dy=".2em" transform="rotate(155.6306259699948)translate(462.5)rotate(-180)" dx="-4px" text-anchor="end">Morganellaceae</text><text style="fill: rgb(0, 0, 0); fill-opacity: 0.000001; pointer-events: none; font-size: 6px; visibility: hidden;" dy=".2em" transform="rotate(155.6864976720124)translate(370)rotate(-180)" dx="-4px" text-anchor="end">Gammaproteobacteria bacterium</text><text style="fill: rgb(238, 238, 238); fill-opacity: 0.000001; pointer-events: none; font-size: 11px; visibility: hidden;" dy=".2em" transform="rotate(155.74236937402998)translate(370)rotate(-180)" dx="-4px" text-anchor="end">Oceanospirillales</text><text style="fill: rgb(238, 238, 238); fill-opacity: 0.000001; pointer-events: none; font-size: 10px; visibility: hidden;" dy=".2em" transform="rotate(155.74236937402998)translate(462.5)rotate(-180)" dx="-4px" text-anchor="end">Oceanospirillaceae</text><text style="fill: rgb(238, 238, 238); fill-opacity: 0.000001; pointer-events: none; font-size: 12px; visibility: hidden;" dy=".2em" transform="rotate(155.74236937402998)translate(555)rotate(-180)" dx="-4px" text-anchor="end">Marinomonas</text><text style="fill: rgb(238, 238, 238); fill-opacity: 1; pointer-events: none; font-size: 12px;" dy=".2em" transform="rotate(155.77961717537502)translate(277.5)rotate(-180)" dx="-4px" text-anchor="end">Oligoflexia</text><text style="fill: rgb(238, 238, 238); fill-opacity: 0.000001; pointer-events: none; font-size: 10px; visibility: hidden;" dy=".2em" transform="rotate(155.77961717537502)translate(370)rotate(-180)" dx="-4px" text-anchor="end">Bacteriovoracales</text><text style="fill: rgb(238, 238, 238); fill-opacity: 0.000001; pointer-events: none; font-size: 8px; visibility: hidden;" dy=".2em" transform="rotate(155.77961717537502)translate(462.5)rotate(-180)" dx="-4px" text-anchor="end">Halobacteriovoraceae</text><text style="fill: rgb(238, 238, 238); fill-opacity: 0.000001; pointer-events: none; font-size: 6px; visibility: hidden;" dy=".2em" transform="rotate(155.77961717537502)translate(555)rotate(-180)" dx="-4px" text-anchor="end">Halobacteriovoraceae bacterium</text><text style="fill: rgb(238, 238, 238); fill-opacity: 1; pointer-events: none; font-size: 7px;" dy=".2em" transform="rotate(155.8541127780652)translate(277.5)rotate(-180)" dx="-4px" text-anchor="end">delta/epsilon subdivisions</text><text style="fill: rgb(238, 238, 238); fill-opacity: 0.000001; pointer-events: none; font-size: 9px; visibility: hidden;" dy=".2em" transform="rotate(155.8354888773926)translate(370)rotate(-180)" dx="-4px" text-anchor="end">Deltaproteobacteria</text><text style="fill: rgb(238, 238, 238); fill-opacity: 0.000001; pointer-events: none; font-size: 10px; visibility: hidden;" dy=".2em" transform="rotate(155.8168649767201)translate(462.5)rotate(-180)" dx="-4px" text-anchor="end">Desulfobacterales</text><text style="fill: rgb(238, 238, 238); fill-opacity: 0.000001; pointer-events: none; font-size: 9px; visibility: hidden;" dy=".2em" transform="rotate(155.8168649767201)translate(555)rotate(-180)" dx="-4px" text-anchor="end">Desulfobacteraceae</text><text style="fill: rgb(238, 238, 238); fill-opacity: 0.000001; pointer-events: none; font-size: 6px; visibility: hidden;" dy=".2em" transform="rotate(155.8168649767201)translate(647.5)rotate(-180)" dx="-4px" text-anchor="end">Desulfobacteraceae bacterium</text><text style="fill: rgb(238, 238, 238); fill-opacity: 0.000001; pointer-events: none; font-size: 9px; visibility: hidden;" dy=".2em" transform="rotate(155.85411277806514)translate(462.5)rotate(-180)" dx="-4px" text-anchor="end">Syntrophobacterales</text><text style="fill: rgb(238, 238, 238); fill-opacity: 0.000001; pointer-events: none; font-size: 12px; visibility: hidden;" dy=".2em" transform="rotate(155.85411277806514)translate(555)rotate(-180)" dx="-4px" text-anchor="end">Syntrophaceae</text><text style="fill: rgb(238, 238, 238); fill-opacity: 0.000001; pointer-events: none; font-size: 12px; visibility: hidden;" dy=".2em" transform="rotate(155.85411277806514)translate(647.5)rotate(-180)" dx="-4px" text-anchor="end">Desulfobacca</text><text style="fill: rgb(238, 238, 238); fill-opacity: 0.000001; pointer-events: none; font-size: 8px; visibility: hidden;" dy=".2em" transform="rotate(155.89136057941022)translate(370)rotate(-180)" dx="-4px" text-anchor="end">Epsilonproteobacteria</text><text style="fill: rgb(238, 238, 238); fill-opacity: 0.000001; pointer-events: none; font-size: 12px; visibility: hidden;" dy=".2em" transform="rotate(155.89136057941022)translate(462.5)rotate(-180)" dx="-4px" text-anchor="end">Nitratiruptor</text><text style="fill: rgb(238, 238, 238); fill-opacity: 0.000001; pointer-events: none; font-size: 8px; visibility: hidden;" dy=".2em" transform="rotate(155.89136057941022)translate(555)rotate(-180)" dx="-4px" text-anchor="end">Nitratiruptor tergarcus</text><text style="fill: rgb(238, 238, 238); fill-opacity: 1; pointer-events: none; font-size: 12px;" dy=".2em" transform="rotate(155.92860838075524)translate(185)rotate(-180)" dx="-4px" text-anchor="end">Thermotogae</text><text style="fill: rgb(238, 238, 238); fill-opacity: 1; pointer-events: none; font-size: 12px;" dy=".2em" transform="rotate(155.92860838075524)translate(277.5)rotate(-180)" dx="-4px" text-anchor="end">Thermotogae</text><text style="fill: rgb(238, 238, 238); fill-opacity: 0.000001; pointer-events: none; font-size: 12px; visibility: hidden;" dy=".2em" transform="rotate(155.92860838075524)translate(370)rotate(-180)" dx="-4px" text-anchor="end">Kosmotogales</text><text style="fill: rgb(238, 238, 238); fill-opacity: 0.000001; pointer-events: none; font-size: 11px; visibility: hidden;" dy=".2em" transform="rotate(155.92860838075524)translate(462.5)rotate(-180)" dx="-4px" text-anchor="end">Kosmotogaceae</text><text style="fill: rgb(238, 238, 238); fill-opacity: 0.000001; pointer-events: none; font-size: 12px; visibility: hidden;" dy=".2em" transform="rotate(155.92860838075524)translate(555)rotate(-180)" dx="-4px" text-anchor="end">Mesotoga</text><text style="fill: rgb(238, 238, 238); fill-opacity: 1; pointer-events: none; font-size: 11px;" dy=".2em" transform="rotate(155.9658561821003)translate(185)rotate(-180)" dx="-4px" text-anchor="end">Verrucomicrobia</text><text style="fill: rgb(238, 238, 238); fill-opacity: 1; pointer-events: none; font-size: 10px;" dy=".2em" transform="rotate(155.9658561821003)translate(277.5)rotate(-180)" dx="-4px" text-anchor="end">Verrucomicrobiae</text><text style="fill: rgb(238, 238, 238); fill-opacity: 0.000001; pointer-events: none; font-size: 10px; visibility: hidden;" dy=".2em" transform="rotate(155.9658561821003)translate(370)rotate(-180)" dx="-4px" text-anchor="end">Verrucomicrobiales</text><text style="fill: rgb(238, 238, 238); fill-opacity: 0.000001; pointer-events: none; font-size: 6px; visibility: hidden;" dy=".2em" transform="rotate(155.9658561821003)translate(462.5)rotate(-180)" dx="-4px" text-anchor="end">Verrucomicrobiales bacterium</text><text style="fill: rgb(238, 238, 238); fill-opacity: 1; pointer-events: none; font-size: 6px;" dy=".2em" transform="rotate(156.00310398344536)translate(185)rotate(-180)" dx="-4px" text-anchor="end">candidate division Zixibacteria</text><text style="fill: rgb(238, 238, 238); fill-opacity: 1; pointer-events: none; font-size: 5px;" dy=".2em" transform="rotate(156.00310398344536)translate(277.5)rotate(-180)" dx="-4px" text-anchor="end">candidate division Zixibacteria bacterium</text><text style="fill: rgb(0, 0, 0); fill-opacity: 1; pointer-events: none; font-size: 12px;" dy=".2em" transform="rotate(172.0382824624935)translate(185)rotate(-180)" dx="-4px" text-anchor="end"/><text style="fill: rgb(238, 238, 238); fill-opacity: 1; pointer-events: none; font-size: 12px;" dy=".2em" transform="rotate(188.9860320744956)translate(92.5)rotate(-180)" dx="-4px" text-anchor="end">Eukaryota</text><text style="fill: rgb(238, 238, 238); fill-opacity: 1; pointer-events: none; font-size: 12px;" dy=".2em" transform="rotate(188.07346094154167)translate(185)rotate(-180)" dx="-4px" text-anchor="end">Fungi</text><text style="fill: rgb(238, 238, 238); fill-opacity: 1; pointer-events: none; font-size: 12px;" dy=".2em" transform="rotate(188.07346094154167)translate(277.5)rotate(-180)" dx="-4px" text-anchor="end">Dikarya</text><text style="fill: rgb(238, 238, 238); fill-opacity: 0.000001; pointer-events: none; font-size: 12px; visibility: hidden;" dy=".2em" transform="rotate(188.07346094154167)translate(370)rotate(-180)" dx="-4px" text-anchor="end">Ascomycota</text><text style="fill: rgb(238, 238, 238); fill-opacity: 0.000001; pointer-events: none; font-size: 12px; visibility: hidden;" dy=".2em" transform="rotate(188.07346094154167)translate(462.5)rotate(-180)" dx="-4px" text-anchor="end">Pezizomycotina</text><text style="fill: rgb(238, 238, 238); fill-opacity: 0.000001; pointer-events: none; font-size: 11px; visibility: hidden;" dy=".2em" transform="rotate(188.07346094154167)translate(555)rotate(-180)" dx="-4px" text-anchor="end">Sordariomycetes</text><text style="fill: rgb(238, 238, 238); fill-opacity: 1; pointer-events: none; font-size: 12px;" dy=".2em" transform="rotate(188.87428867046037)translate(185)rotate(-180)" dx="-4px" text-anchor="end">Metazoa</text><text style="fill: rgb(238, 238, 238); fill-opacity: 1; pointer-events: none; font-size: 12px;" dy=".2em" transform="rotate(188.81841696844282)translate(277.5)rotate(-180)" dx="-4px" text-anchor="end">Chordata</text><text style="fill: rgb(238, 238, 238); fill-opacity: 0.000001; pointer-events: none; font-size: 12px; visibility: hidden;" dy=".2em" transform="rotate(188.81841696844282)translate(370)rotate(-180)" dx="-4px" text-anchor="end">Craniata</text><text style="fill: rgb(238, 238, 238); fill-opacity: 0.000001; pointer-events: none; font-size: 12px; visibility: hidden;" dy=".2em" transform="rotate(188.79979306777028)translate(462.5)rotate(-180)" dx="-4px" text-anchor="end">Sarcopterygii</text><text style="fill: rgb(238, 238, 238); fill-opacity: 0.000001; pointer-events: none; font-size: 12px; visibility: hidden;" dy=".2em" transform="rotate(188.74392136575273)translate(555)rotate(-180)" dx="-4px" text-anchor="end">Mammalia</text><text style="fill: rgb(238, 238, 238); fill-opacity: 0.000001; pointer-events: none; font-size: 11px; visibility: hidden;" dy=".2em" transform="rotate(188.39006725297463)translate(647.5)rotate(-180)" dx="-4px" text-anchor="end">Euarchontoglires</text><text style="fill: rgb(238, 238, 238); fill-opacity: 0.000001; pointer-events: none; font-size: 12px; visibility: hidden;" dy=".2em" transform="rotate(188.31557165028448)translate(740)rotate(-180)" dx="-4px" text-anchor="end">Primates</text><text style="fill: rgb(238, 238, 238); fill-opacity: 0.000001; pointer-events: none; font-size: 12px; visibility: hidden;" dy=".2em" transform="rotate(188.31557165028448)translate(832.5)rotate(-180)" dx="-4px" text-anchor="end">Haplorrhini</text><text style="fill: rgb(238, 238, 238); fill-opacity: 0.000001; pointer-events: none; font-size: 12px; visibility: hidden;" dy=".2em" transform="rotate(188.29694774961195)translate(925)rotate(-180)" dx="-4px" text-anchor="end">Simiiformes</text><text style="fill: rgb(238, 238, 238); fill-opacity: 0.000001; pointer-events: none; font-size: 12px; visibility: hidden;" dy=".2em" transform="rotate(188.22245214692185)translate(1017.5)rotate(-180)" dx="-4px" text-anchor="end">Catarrhini</text><text style="fill: rgb(238, 238, 238); fill-opacity: 0.000001; pointer-events: none; font-size: 12px; visibility: hidden;" dy=".2em" transform="rotate(188.20382824624937)translate(1110)rotate(-180)" dx="-4px" text-anchor="end">Hominoidea</text><text style="fill: rgb(238, 238, 238); fill-opacity: 0.000001; pointer-events: none; font-size: 12px; visibility: hidden;" dy=".2em" transform="rotate(188.1665804449043)translate(1202.5)rotate(-180)" dx="-4px" text-anchor="end">Hominidae</text><text style="fill: rgb(238, 238, 238); fill-opacity: 0.000001; pointer-events: none; font-size: 12px; visibility: hidden;" dy=".2em" transform="rotate(188.12933264355917)translate(1295)rotate(-180)" dx="-4px" text-anchor="end">Homininae</text><text style="fill: rgb(0, 0, 0); fill-opacity: 0.000001; pointer-events: none; font-size: 12px; visibility: hidden;" dy=".2em" transform="rotate(188.20382824624937)translate(1295)rotate(-180)" dx="-4px" text-anchor="end"/><text style="fill: rgb(0, 0, 0); fill-opacity: 0.000001; pointer-events: none; font-size: 12px; visibility: hidden;" dy=".2em" transform="rotate(188.2783238489394)translate(1202.5)rotate(-180)" dx="-4px" text-anchor="end"/><text style="fill: rgb(0, 0, 0); fill-opacity: 0.000001; pointer-events: none; font-size: 12px; visibility: hidden;" dy=".2em" transform="rotate(188.33419555095702)translate(1110)rotate(-180)" dx="-4px" text-anchor="end"/><text style="fill: rgb(0, 0, 0); fill-opacity: 0.000001; pointer-events: none; font-size: 12px; visibility: hidden;" dy=".2em" transform="rotate(188.4273150543197)translate(1017.5)rotate(-180)" dx="-4px" text-anchor="end"/><text style="fill: rgb(0, 0, 0); fill-opacity: 0.000001; pointer-events: none; font-size: 12px; visibility: hidden;" dy=".2em" transform="rotate(188.52043455768234)translate(925)rotate(-180)" dx="-4px" text-anchor="end"/><text style="fill: rgb(238, 238, 238); fill-opacity: 0.000001; pointer-events: none; font-size: 12px; visibility: hidden;" dy=".2em" transform="rotate(188.5576823590274)translate(740)rotate(-180)" dx="-4px" text-anchor="end">Rodentia</text><text style="fill: rgb(0, 0, 0); fill-opacity: 0.000001; pointer-events: none; font-size: 12px; visibility: hidden;" dy=".2em" transform="rotate(188.6321779617175)translate(740)rotate(-180)" dx="-4px" text-anchor="end"/><text style="fill: rgb(238, 238, 238); fill-opacity: 0.000001; pointer-events: none; font-size: 12px; visibility: hidden;" dy=".2em" transform="rotate(188.74392136575273)translate(647.5)rotate(-180)" dx="-4px" text-anchor="end">Laurasiatheria</text><text style="fill: rgb(238, 238, 238); fill-opacity: 0.000001; pointer-events: none; font-size: 12px; visibility: hidden;" dy=".2em" transform="rotate(188.74392136575273)translate(740)rotate(-180)" dx="-4px" text-anchor="end">Artiodactyla</text><text style="fill: rgb(238, 238, 238); fill-opacity: 0.000001; pointer-events: none; font-size: 12px; visibility: hidden;" dy=".2em" transform="rotate(188.74392136575273)translate(832.5)rotate(-180)" dx="-4px" text-anchor="end">Suina</text><text style="fill: rgb(238, 238, 238); fill-opacity: 0.000001; pointer-events: none; font-size: 12px; visibility: hidden;" dy=".2em" transform="rotate(188.74392136575273)translate(925)rotate(-180)" dx="-4px" text-anchor="end">Suidae</text><text style="fill: rgb(238, 238, 238); fill-opacity: 0.000001; pointer-events: none; font-size: 12px; visibility: hidden;" dy=".2em" transform="rotate(188.74392136575273)translate(1017.5)rotate(-180)" dx="-4px" text-anchor="end">Sus</text><text style="fill: rgb(238, 238, 238); fill-opacity: 0.000001; pointer-events: none; font-size: 12px; visibility: hidden;" dy=".2em" transform="rotate(188.74392136575273)translate(1110)rotate(-180)" dx="-4px" text-anchor="end">Sus scrofa</text><text style="fill: rgb(0, 0, 0); fill-opacity: 0.000001; pointer-events: none; font-size: 12px; visibility: hidden;" dy=".2em" transform="rotate(189.09777547853076)translate(647.5)rotate(-180)" dx="-4px" text-anchor="end"/><text style="fill: rgb(0, 0, 0); fill-opacity: 0.000001; pointer-events: none; font-size: 12px; visibility: hidden;" dy=".2em" transform="rotate(189.45162959130886)translate(555)rotate(-180)" dx="-4px" text-anchor="end"/><text style="fill: rgb(0, 0, 0); fill-opacity: 0.000001; pointer-events: none; font-size: 12px; visibility: hidden;" dy=".2em" transform="rotate(189.52612519399895)translate(462.5)rotate(-180)" dx="-4px" text-anchor="end"/><text style="fill: rgb(238, 238, 238); fill-opacity: 1; pointer-events: none; font-size: 12px;" dy=".2em" transform="rotate(189.56337299534397)translate(277.5)rotate(-180)" dx="-4px" text-anchor="end">Nematoda</text><text style="fill: rgb(238, 238, 238); fill-opacity: 0.000001; pointer-events: none; font-size: 12px; visibility: hidden;" dy=".2em" transform="rotate(189.56337299534397)translate(370)rotate(-180)" dx="-4px" text-anchor="end">Chromadorea</text><text style="fill: rgb(238, 238, 238); fill-opacity: 0.000001; pointer-events: none; font-size: 12px; visibility: hidden;" dy=".2em" transform="rotate(189.56337299534397)translate(462.5)rotate(-180)" dx="-4px" text-anchor="end">Rhabditida</text><text style="fill: rgb(238, 238, 238); fill-opacity: 0.000001; pointer-events: none; font-size: 12px; visibility: hidden;" dy=".2em" transform="rotate(189.56337299534397)translate(555)rotate(-180)" dx="-4px" text-anchor="end">Tylenchina</text><text style="fill: rgb(238, 238, 238); fill-opacity: 0.000001; pointer-events: none; font-size: 9px; visibility: hidden;" dy=".2em" transform="rotate(189.56337299534397)translate(647.5)rotate(-180)" dx="-4px" text-anchor="end">Panagrolaimomorpha</text><text style="fill: rgb(238, 238, 238); fill-opacity: 0.000001; pointer-events: none; font-size: 11px; visibility: hidden;" dy=".2em" transform="rotate(189.56337299534397)translate(740)rotate(-180)" dx="-4px" text-anchor="end">Strongyloidoidea</text><text style="fill: rgb(238, 238, 238); fill-opacity: 0.000001; pointer-events: none; font-size: 10px; visibility: hidden;" dy=".2em" transform="rotate(189.56337299534397)translate(832.5)rotate(-180)" dx="-4px" text-anchor="end">Steinernematidae</text><text style="fill: rgb(238, 238, 238); fill-opacity: 0.000001; pointer-events: none; font-size: 12px; visibility: hidden;" dy=".2em" transform="rotate(189.56337299534397)translate(925)rotate(-180)" dx="-4px" text-anchor="end">Steinernema</text><text style="fill: rgb(238, 238, 238); fill-opacity: 0.000001; pointer-events: none; font-size: 7px; visibility: hidden;" dy=".2em" transform="rotate(189.56337299534397)translate(1017.5)rotate(-180)" dx="-4px" text-anchor="end">Steinernema carpocapsae</text><text style="fill: rgb(238, 238, 238); fill-opacity: 1; pointer-events: none; font-size: 11px;" dy=".2em" transform="rotate(189.60062079668904)translate(277.5)rotate(-180)" dx="-4px" text-anchor="end">Platyhelminthes</text><text style="fill: rgb(238, 238, 238); fill-opacity: 0.000001; pointer-events: none; font-size: 12px; visibility: hidden;" dy=".2em" transform="rotate(189.60062079668904)translate(370)rotate(-180)" dx="-4px" text-anchor="end">Trematoda</text><text style="fill: rgb(238, 238, 238); fill-opacity: 0.000001; pointer-events: none; font-size: 12px; visibility: hidden;" dy=".2em" transform="rotate(189.60062079668904)translate(462.5)rotate(-180)" dx="-4px" text-anchor="end">Digenea</text><text style="fill: rgb(238, 238, 238); fill-opacity: 0.000001; pointer-events: none; font-size: 12px; visibility: hidden;" dy=".2em" transform="rotate(189.60062079668904)translate(555)rotate(-180)" dx="-4px" text-anchor="end">Opisthorchiida</text><text style="fill: rgb(238, 238, 238); fill-opacity: 0.000001; pointer-events: none; font-size: 12px; visibility: hidden;" dy=".2em" transform="rotate(189.60062079668904)translate(647.5)rotate(-180)" dx="-4px" text-anchor="end">Opisthorchiata</text><text style="fill: rgb(238, 238, 238); fill-opacity: 0.000001; pointer-events: none; font-size: 12px; visibility: hidden;" dy=".2em" transform="rotate(189.60062079668904)translate(740)rotate(-180)" dx="-4px" text-anchor="end">Opisthorchiidae</text><text style="fill: rgb(238, 238, 238); fill-opacity: 0.000001; pointer-events: none; font-size: 12px; visibility: hidden;" dy=".2em" transform="rotate(189.60062079668904)translate(832.5)rotate(-180)" dx="-4px" text-anchor="end">Opisthorchis</text><text style="fill: rgb(238, 238, 238); fill-opacity: 0.000001; pointer-events: none; font-size: 9px; visibility: hidden;" dy=".2em" transform="rotate(189.60062079668904)translate(925)rotate(-180)" dx="-4px" text-anchor="end">Opisthorchis viverrini</text><text style="fill: rgb(0, 0, 0); fill-opacity: 1; pointer-events: none; font-size: 12px;" dy=".2em" transform="rotate(189.63786859803412)translate(277.5)rotate(-180)" dx="-4px" text-anchor="end"/><text style="fill: rgb(0, 0, 0); fill-opacity: 1; pointer-events: none; font-size: 12px;" dy=".2em" transform="rotate(189.7309881013968)translate(185)rotate(-180)" dx="-4px" text-anchor="end">Viridiplantae</text><text style="fill: rgb(0, 0, 0); fill-opacity: 1; pointer-events: none; font-size: 12px;" dy=".2em" transform="rotate(189.6751163993792)translate(277.5)rotate(-180)" dx="-4px" text-anchor="end">Chlorophyta</text><text style="fill: rgb(0, 0, 0); fill-opacity: 0.000001; pointer-events: none; font-size: 10px; visibility: hidden;" dy=".2em" transform="rotate(189.6751163993792)translate(370)rotate(-180)" dx="-4px" text-anchor="end">Trebouxiophyceae</text><text style="fill: rgb(0, 0, 0); fill-opacity: 0.000001; pointer-events: none; font-size: 12px; visibility: hidden;" dy=".2em" transform="rotate(189.6751163993792)translate(462.5)rotate(-180)" dx="-4px" text-anchor="end">Chlorellales</text><text style="fill: rgb(0, 0, 0); fill-opacity: 0.000001; pointer-events: none; font-size: 12px; visibility: hidden;" dy=".2em" transform="rotate(189.6751163993792)translate(555)rotate(-180)" dx="-4px" text-anchor="end">Chlorellaceae</text><text style="fill: rgb(0, 0, 0); fill-opacity: 0.000001; pointer-events: none; font-size: 12px; visibility: hidden;" dy=".2em" transform="rotate(189.6751163993792)translate(647.5)rotate(-180)" dx="-4px" text-anchor="end">Chlorella</text><text style="fill: rgb(0, 0, 0); fill-opacity: 0.000001; pointer-events: none; font-size: 10px; visibility: hidden;" dy=".2em" transform="rotate(189.6751163993792)translate(740)rotate(-180)" dx="-4px" text-anchor="end">Chlorella variabilis</text><text style="fill: rgb(0, 0, 0); fill-opacity: 1; pointer-events: none; font-size: 12px;" dy=".2em" transform="rotate(189.71236420072427)translate(277.5)rotate(-180)" dx="-4px" text-anchor="end">Streptophyta</text><text style="fill: rgb(0, 0, 0); fill-opacity: 0.000001; pointer-events: none; font-size: 12px; visibility: hidden;" dy=".2em" transform="rotate(189.71236420072427)translate(370)rotate(-180)" dx="-4px" text-anchor="end">Streptophytina</text><text style="fill: rgb(0, 0, 0); fill-opacity: 0.000001; pointer-events: none; font-size: 12px; visibility: hidden;" dy=".2em" transform="rotate(189.71236420072427)translate(462.5)rotate(-180)" dx="-4px" text-anchor="end">Magnoliopsida</text><text style="fill: rgb(0, 0, 0); fill-opacity: 1; pointer-events: none; font-size: 12px;" dy=".2em" transform="rotate(189.76823590274176)translate(277.5)rotate(-180)" dx="-4px" text-anchor="end"/><text style="fill: rgb(0, 0, 0); fill-opacity: 1; pointer-events: none; font-size: 12px;" dy=".2em" transform="rotate(189.86135540610445)translate(185)rotate(-180)" dx="-4px" text-anchor="end"/><text style="fill: rgb(0, 0, 0); fill-opacity: 1; pointer-events: none; font-size: 12px;" dy=".2em" transform="rotate(189.9358510087946)translate(92.5)rotate(-180)" dx="-4px" text-anchor="end">Viruses</text><text style="fill: rgb(0, 0, 0); fill-opacity: 1; pointer-events: none; font-size: 12px;" dy=".2em" transform="rotate(189.9358510087946)translate(185)rotate(-180)" dx="-4px" text-anchor="end">Caudovirales</text><text style="fill: rgb(0, 0, 0); fill-opacity: 1; pointer-events: none; font-size: 12px;" dy=".2em" transform="rotate(189.9358510087946)translate(277.5)rotate(-180)" dx="-4px" text-anchor="end">Myoviridae</text><text style="fill: rgb(0, 0, 0); fill-opacity: 1; pointer-events: none; font-size: 12px;" dy=".2em" transform="rotate(229.9772374547336)translate(92.5)rotate(-180)" dx="-4px" text-anchor="end"/></g></svg>