<?xml version="1.0" encoding="utf-8"?>
<!-- Generator:VennPainter 1.0)  -->
<!DOCTYPE svg PUBLIC "-//W3C//DTD SVG 1.1//EN" "http://www.w3.org/Graphics/SVG/1.1/DTD/svg11.dtd">
<svg version="1.1" id="_x31_" xmlns="http://www.w3.org/2000/svg" xmlns:xlink="http://www.w3.org/1999/xlink" x="0px" y="0px" width="595.276px" height="481.89px" viewBox="0 0 595.276 481.89" enable-background="new 0 0 595.276 481.89" xml:space="preserve">
<ellipse transform="matrix(-0.7281 0.6854 -0.6854 -0.7281 537.6213 329.2153)" opacity="0.5" fill="#543E10" enable-background="new    " cx="203.522" cy="271.226" rx="134.766" ry="234.389"/>
<ellipse transform="matrix(0.7598 0.6501 -0.6501 0.7598 210.7071 -141.161)" opacity="0.5" fill="#B56E0E" enable-background="new    " cx="296.409" cy="214.602" rx="134.763" ry="234.374"/>
<ellipse transform="matrix(-0.7281 0.6854 -0.6854 -0.7281 662.1589 157.8061)" opacity="0.5" fill="#3E810C" enable-background="new    " cx="299.784" cy="210.22" rx="134.766" ry="234.389"/>
<ellipse transform="matrix(0.7598 0.6501 -0.6501 0.7598 267.5284 -189.5555)" opacity="0.5" fill="#91FF2C" enable-background="new    " cx="390.319" cy="267.31" rx="134.763" ry="234.374"/>
<text transform="matrix(0.9996 0.0278 -0.0278 0.9996 69.3705 154.4788)" font-family="Arial" text-anchor="middle" font-size="18">965 m sinking</text>
<text transform="matrix(0.9996 0.0278 -0.0278 0.9996 201.1085 44.584)" font-family="Arial" text-anchor="middle" font-size="18">100 m sinking</text>
<text transform="matrix(0.9996 0.0278 -0.0278 0.9996 399.3012 39.2913)" font-family="Arial" text-anchor="middle" font-size="18">965 m suspended</text>
<text transform="matrix(0.9996 0.0278 -0.0278 0.9996 522.2137 158.5278)" font-family="Arial" text-anchor="middle" font-size="18">100 m suspended</text>
<text transform="matrix(0.9996 0.0278 -0.0278 0.9996 68.4789 180.783)" font-family="Arial" text-anchor="middle" font-size="12">5135</text>
<text transform="matrix(0.9996 0.0278 -0.0278 0.9996 201.8012 68.6014)" font-family="Arial" text-anchor="middle" font-size="12">2138</text>
<text transform="matrix(0.9996 0.0278 -0.0278 0.9996 391.2914 63.7191)" font-family="Arial" text-anchor="middle" font-size="12">112</text>
<text transform="matrix(0.9996 0.0278 -0.0278 0.9996 523.0193 183.9465)" font-family="Arial" text-anchor="middle" font-size="12">3099</text>
<text transform="matrix(0.9996 0.0278 -0.0278 0.9996 151.1618 122.0448)" font-family="Arial" text-anchor="middle" font-size="12">60</text>
<text transform="matrix(0.9996 0.0278 -0.0278 0.9996 163.9167 311.3544)" font-family="Arial" text-anchor="middle" font-size="12">0</text>
<text transform="matrix(0.9996 0.0278 -0.0278 0.9996 297.6145 103.0608)" font-family="Arial" text-anchor="middle" font-size="12">0</text>
<text transform="matrix(0.9996 0.0278 -0.0278 0.9996 217.4947 189.0349)" font-family="Arial" text-anchor="middle" font-size="12">2</text>
<text transform="matrix(0.9996 0.0278 -0.0278 0.9996 303.6904 419.8679)" font-family="Arial" text-anchor="middle" font-size="12">18</text>
<text transform="matrix(0.9996 0.0278 -0.0278 0.9996 429.1614 328.9037)" font-family="Arial" text-anchor="middle" font-size="12">11</text>
<text transform="matrix(0.9996 0.0278 -0.0278 0.9996 369.3781 376.517)" font-family="Arial" text-anchor="middle" font-size="12">4</text>
<text transform="matrix(0.9996 0.0278 -0.0278 0.9996 442.1158 120.2271)" font-family="Arial" text-anchor="middle" font-size="12">8</text>
<text transform="matrix(0.9996 0.0278 -0.0278 0.9996 245.9866 376.8777)" font-family="Arial" text-anchor="middle" font-size="12">1</text>
<text transform="matrix(0.9996 0.0278 -0.0278 0.9996 392.921 198.7922)" font-family="Arial" text-anchor="middle" font-size="12">0</text>
<text transform="matrix(0.9996 0.0278 -0.0278 0.9996 300.497 289.523)" font-family="Arial" text-anchor="middle" font-size="12">1</text>
</svg>
