<?xml version="1.0" standalone="no"?><!DOCTYPE svg PUBLIC "-//W3C//DTD SVG 1.1//EN" "http://www.w3.org/Graphics/SVG/1.1/DTD/svg11.dtd"><svg width="689" height="400"><defs></defs><rect x="2" y="2" width="686" height="397" fill="none" style="fill-opacity: 1; stroke-opacity: 1; stroke-width: 2;"></rect><text style="font-size:10px;font-family:'Times New Roman', sans-serif" fill="#040404" class="vennchart-title" x="234.19166564941406" y="14">suspended organic matter, 2.7 - 0.3 um peptide overlap</text><text style="font-size:10px;font-family:'Times New Roman', sans-serif" fill="#040404" class="vennchart-subtitle" x="344.5" y="19"></text><g class="venn-area venn-circle venn-sets-2"><path style="fill-opacity: 0.25; fill: rgb(44, 160, 44); stroke-opacity: 0; stroke: red; stroke-width: 0;" d="
M 434.56327868270023 280.1434933940013 
m -100.56528588457356 0 
a 100.56528588457356 100.56528588457356 0 1 0 201.1305717691471 0 
a 100.56528588457356 100.56528588457356 0 1 0 -201.1305717691471 0"></path><text style="fill: rgb(44, 160, 44);" text-anchor="middle" dy=".35em" x="455" y="293"><tspan x="455" y="293" dy="0.35em">130</tspan></text></g><g class="venn-area venn-circle venn-sets-1"><path style="fill-opacity: 0.25; fill: rgb(255, 127, 14); stroke-opacity: 0; stroke: red; stroke-width: 0;" d="
M 302.87767976413045 280.1392329983405 
m -98.65948327355751 0 
a 98.65948327355751 98.65948327355751 0 1 0 197.31896654711502 0 
a 98.65948327355751 98.65948327355751 0 1 0 -197.31896654711502 0"></path><text style="fill: rgb(255, 127, 14);" text-anchor="middle" dy=".35em" x="283" y="298"><tspan x="283" y="298" dy="0.35em">100 m</tspan></text></g><g class="venn-area venn-circle venn-sets-0"><path style="fill-opacity: 0.25; fill: rgb(31, 119, 180); stroke-opacity: 0; stroke: red; stroke-width: 0;" d="
M 217.7144988213701 156.5531024859951 
m -94.1848052341021 0 
a 94.1848052341021 94.1848052341021 0 1 0 188.3696104682042 0 
a 94.1848052341021 94.1848052341021 0 1 0 -188.3696104682042 0"></path><text style="fill: rgb(31, 119, 180);" text-anchor="middle" dy=".35em" x="206" y="147"><tspan x="206" y="147" dy="0.35em">50 m</tspan></text></g><g class="venn-area venn-circle venn-sets-3"><path style="fill-opacity: 0.25; fill: rgb(214, 39, 40); stroke-opacity: 0; stroke: red; stroke-width: 0;" d="
M 379.51221642176915 132.18380841182784 
m -88.98380841182784 0 
a 88.98380841182784 88.98380841182784 0 1 0 177.96761682365567 0 
a 88.98380841182784 88.98380841182784 0 1 0 -177.96761682365567 0"></path><text style="fill: rgb(214, 39, 40);" text-anchor="middle" dy=".35em" x="369" y="118"><tspan x="369" y="118" dy="0.35em">265</tspan></text></g><g class="venn-area venn-circle venn-sets-5"><path style="fill-opacity: 0.25; fill: rgb(140, 86, 75); stroke-opacity: 0; stroke: red; stroke-width: 0;" d="
M 371.0996433943426 367.00350361167057 
m -16.19649638832936 0 
a 16.19649638832936 16.19649638832936 0 1 0 32.39299277665872 0 
a 16.19649638832936 16.19649638832936 0 1 0 -32.39299277665872 0"></path><text style="fill: rgb(140, 86, 75);" text-anchor="middle" dy=".35em" x="366" y="368"><tspan x="366" y="368" dy="0.35em">1200</tspan></text></g><g class="venn-area venn-circle venn-sets-4"><path style="fill-opacity: 0.25; fill: rgb(148, 103, 189); stroke-opacity: 0; stroke: red; stroke-width: 0;" d="
M 490.04920227213364 147.27633724011616 
m -75.42110414059827 0 
a 75.42110414059827 75.42110414059827 0 1 0 150.84220828119655 0 
a 75.42110414059827 75.42110414059827 0 1 0 -150.84220828119655 0"></path><text style="fill: rgb(148, 103, 189);" text-anchor="middle" dy=".35em" x="511" y="141"><tspan x="511" y="141" dy="0.35em">300</tspan></text></g><g class="venn-area venn-intersection venn-sets-1_2"><path style="fill-opacity: 0; stroke-opacity: 0; stroke: red; stroke-width: 0;" d="
M 367.2764339425814 354.8820861688533 
A 100.56528588457356 100.56528588457356 0 0 1 367.28127008644464 205.40054694218287 
A 98.65948327355751 98.65948327355751 0 0 1 367.2764339425814 354.8820861688533"></path><text style="fill: rgb(68, 68, 68);" text-anchor="middle" dy=".35em" x="366" y="282"><tspan x="366" y="282" dy="0.35em">100 m ^ 130</tspan></text></g><g class="venn-area venn-intersection venn-sets-3_4"><path style="fill-opacity: 0; stroke-opacity: 0; stroke: red; stroke-width: 0;" d="
M 436.57447653302665 200.46277025563495 
A 75.42110414059827 75.42110414059827 0 0 1 452.789969539547 81.70124649701529 
A 88.98380841182784 88.98380841182784 0 0 1 436.57447653302665 200.46277025563495"></path><text style="fill: rgb(68, 68, 68);" text-anchor="middle" dy=".35em" x="442" y="136"><tspan x="442" y="136" dy="0.35em">265 ^ 300</tspan></text></g><g class="venn-area venn-intersection venn-sets-0_1"><path style="fill-opacity: 0; stroke-opacity: 0; stroke: red; stroke-width: 0;" d="
M 208.83300622422712 250.31821660757362 
A 98.65948327355751 98.65948327355751 0 0 1 308.4968219830964 181.63989858166332 
A 94.1848052341021 94.1848052341021 0 0 1 208.83300622422712 250.31821660757362"></path><text style="fill: rgb(68, 68, 68);" text-anchor="middle" dy=".35em" x="256" y="217"><tspan x="256" y="217" dy="0.35em">50 m ^ 100 m</tspan></text></g><g class="venn-area venn-intersection venn-sets-2_3"><path style="fill-opacity: 0; stroke-opacity: 0; stroke: red; stroke-width: 0;" d="
M 355.5831793482769 217.8898137102217 
A 100.56528588457356 100.56528588457356 0 0 1 453.6432675007611 181.40479403175186 
A 88.98380841182784 88.98380841182784 0 0 1 355.5831793482769 217.8898137102217"></path><text style="fill: rgb(68, 68, 68);" text-anchor="middle" dy=".35em" x="405" y="202"><tspan x="405" y="202" dy="0.35em">130 ^ 265</tspan></text></g><g class="venn-area venn-intersection venn-sets-2_4"><path style="fill-opacity: 0; stroke-opacity: 0; stroke: red; stroke-width: 0;" d="
M 422.2587373370942 180.33379953954508 
A 100.56528588457356 100.56528588457356 0 0 1 514.1964369012322 218.72739748105474 
A 75.42110414059827 75.42110414059827 0 0 1 422.2587373370942 180.33379953954508"></path><text style="fill: rgb(68, 68, 68);" text-anchor="middle" dy=".35em" x="473" y="202"><tspan x="473" y="202" dy="0.35em">130 ^ 300</tspan></text></g><g class="venn-area venn-intersection venn-sets-1_3"><path style="fill-opacity: 0; stroke-opacity: 0; stroke: red; stroke-width: 0;" d="
M 305.45337629954633 181.513377224295 
A 98.65948327355751 98.65948327355751 0 0 1 381.9479552063783 221.1342740432456 
A 88.98380841182784 88.98380841182784 0 0 1 305.45337629954633 181.513377224295"></path><text style="fill: rgb(68, 68, 68);" text-anchor="middle" dy=".35em" x="333" y="200"><tspan x="333" y="200" dy="0.35em">100 m ^ 265</tspan></text></g><g class="venn-area venn-intersection venn-sets-0_3"><path style="fill-opacity: 0; stroke-opacity: 0; stroke: red; stroke-width: 0;" d="
M 295.36411919129813 103.24912521045025 
A 94.1848052341021 94.1848052341021 0 0 1 307.6199551489007 184.62063639127854 
A 88.98380841182784 88.98380841182784 0 0 1 295.36411919129813 103.24912521045025"></path><text style="fill: rgb(68, 68, 68);" text-anchor="middle" dy=".35em" x="301" y="143"><tspan x="301" y="143" dy="0.35em">50 m ^ 265</tspan></text></g><g class="venn-area venn-intersection venn-sets-0_2"><path style="fill-opacity: 0; stroke-opacity: 0; stroke: red; stroke-width: 0;" d="M 0 0"></path><text style="fill: rgb(68, 68, 68);" text-anchor="middle" dy=".35em" x="0" y="-1000"><tspan x="0" y="-1000" dy="0.35em">50 m ^ 130</tspan></text></g><g class="venn-area venn-intersection venn-sets-2_5"><path style="fill-opacity: 0; stroke-opacity: 0; stroke: red; stroke-width: 0;" d="
M 364.4484414714662 352.2357005171583 
A 16.19649638832936 16.19649638832936 0 0 1 387.1903226889197 368.8518907724758 
A 100.56528588457356 100.56528588457356 0 0 1 364.4484414714662 352.2357005171583"></path><text style="fill: rgb(68, 68, 68);" text-anchor="middle" dy=".35em" x="375" y="360"><tspan x="375" y="360" dy="0.35em">130 ^ 1200</tspan></text></g><g class="venn-area venn-intersection venn-sets-0_4"><path style="fill-opacity: 0; stroke-opacity: 0; stroke: red; stroke-width: 0;" d="M 0 0"></path><text style="fill: rgb(68, 68, 68);" text-anchor="middle" dy=".35em" x="0" y="-1000"><tspan x="0" y="-1000" dy="0.35em">50 m ^ 300</tspan></text></g><g class="venn-area venn-intersection venn-sets-1_5"><path style="fill-opacity: 0; stroke-opacity: 0; stroke: red; stroke-width: 0;" d="
M 355.2307293940054 363.7625062795104 
A 16.19649638832936 16.19649638832936 0 0 1 371.71171238751333 350.8185764630929 
A 98.65948327355751 98.65948327355751 0 0 1 355.2307293940054 363.7625062795104"></path><text style="fill: rgb(68, 68, 68);" text-anchor="middle" dy=".35em" x="363" y="357"><tspan x="363" y="357" dy="0.35em">100 m ^ 1200</tspan></text></g><g class="venn-area venn-intersection venn-sets-4_5"><path style="fill-opacity: 0; stroke-opacity: 0; stroke: red; stroke-width: 0;" d="M 0 0"></path><text style="fill: rgb(68, 68, 68);" text-anchor="middle" dy=".35em" x="0" y="-1000"><tspan x="0" y="-1000" dy="0.35em">300 ^ 1200</tspan></text></g><g class="venn-area venn-intersection venn-sets-0_5"><path style="fill-opacity: 0; stroke-opacity: 0; stroke: red; stroke-width: 0;" d="M 0 0"></path><text style="fill: rgb(68, 68, 68);" text-anchor="middle" dy=".35em" x="0" y="-1000"><tspan x="0" y="-1000" dy="0.35em">50 m ^ 1200</tspan></text></g><g class="venn-area venn-intersection venn-sets-1_4"><path style="fill-opacity: 0; stroke-opacity: 0; stroke: red; stroke-width: 0;" d="M 0 0"></path><text style="fill: rgb(68, 68, 68);" text-anchor="middle" dy=".35em" x="0" y="-1000"><tspan x="0" y="-1000" dy="0.35em">100 m ^ 300</tspan></text></g><g class="venn-area venn-intersection venn-sets-3_5"><path style="fill-opacity: 0; stroke-opacity: 0; stroke: red; stroke-width: 0;" d="M 0 0"></path><text style="fill: rgb(68, 68, 68);" text-anchor="middle" dy=".35em" x="0" y="-1000"><tspan x="0" y="-1000" dy="0.35em">265 ^ 1200</tspan></text></g><g class="venn-area venn-intersection venn-sets-2_3_4"><path style="fill-opacity: 0; stroke-opacity: 0; stroke: red; stroke-width: 0;" d="
M 422.2587373370942 180.33379953954508 
A 100.56528588457356 100.56528588457356 0 0 1 453.6432675007611 181.40479403175186 
A 88.98380841182784 88.98380841182784 0 0 1 436.57447653302665 200.46277025563495 
A 75.42110414059827 75.42110414059827 0 0 1 422.2587373370942 180.33379953954508"></path><text style="fill: rgb(68, 68, 68);" text-anchor="middle" dy=".35em" x="430" y="187"><tspan x="430" y="187" dy="-0.20000000000000007em">130 ^ 265 ^</tspan><tspan x="430" y="187" dy="0.9em">300</tspan></text></g><g class="venn-area venn-intersection venn-sets-0_1_2"><path style="fill-opacity: 0; stroke-opacity: 0; stroke: red; stroke-width: 0;" d="M 0 0"></path><text style="fill: rgb(68, 68, 68);" text-anchor="middle" dy=".35em" x="0" y="-1000"><tspan x="0" y="-1000" dy="-0.20000000000000007em">50 m ^ 100 m</tspan><tspan x="0" y="-1000" dy="0.9em">^ 130</tspan></text></g><g class="venn-area venn-intersection venn-sets-1_3_4"><path style="fill-opacity: 0; stroke-opacity: 0; stroke: red; stroke-width: 0;" d="M 0 0"></path><text style="fill: rgb(68, 68, 68);" text-anchor="middle" dy=".35em" x="0" y="-1000"><tspan x="0" y="-1000" dy="-0.20000000000000007em">100 m ^ 265 ^</tspan><tspan x="0" y="-1000" dy="0.9em">300</tspan></text></g><g class="venn-area venn-intersection venn-sets-1_2_3"><path style="fill-opacity: 0; stroke-opacity: 0; stroke: red; stroke-width: 0;" d="
M 367.28127008644464 205.40054694218287 
A 98.65948327355751 98.65948327355751 0 0 1 381.9479552063783 221.1342740432456 
A 88.98380841182784 88.98380841182784 0 0 1 355.5831793482769 217.8898137102217 
A 100.56528588457356 100.56528588457356 0 0 1 367.28127008644464 205.40054694218287"></path><text style="fill: rgb(68, 68, 68);" text-anchor="middle" dy=".35em" x="366" y="212"><tspan x="366" y="212" dy="-0.20000000000000007em">100 m ^ 130 ^</tspan><tspan x="366" y="212" dy="0.9em">265</tspan></text></g><g class="venn-area venn-intersection venn-sets-0_2_3"><path style="fill-opacity: 0; stroke-opacity: 0; stroke: red; stroke-width: 0;" d="M 0 0"></path><text style="fill: rgb(68, 68, 68);" text-anchor="middle" dy=".35em" x="0" y="-1000"><tspan x="0" y="-1000" dy="-0.20000000000000007em">50 m ^ 130 ^</tspan><tspan x="0" y="-1000" dy="0.9em">265</tspan></text></g><g class="venn-area venn-intersection venn-sets-1_2_5"><path style="fill-opacity: 0; stroke-opacity: 0; stroke: red; stroke-width: 0;" d="
M 364.4484414714662 352.2357005171583 
A 16.19649638832936 16.19649638832936 0 0 1 371.71171238751333 350.8185764630929 
A 98.65948327355751 98.65948327355751 0 0 1 367.2764339425814 354.8820861688533 
A 100.56528588457356 100.56528588457356 0 0 1 364.4484414714662 352.2357005171583"></path><text style="fill: rgb(68, 68, 68);" text-anchor="middle" dy=".35em" x="367" y="352"><tspan x="367" y="352" dy="-0.20000000000000007em">100 m ^ 130 ^</tspan><tspan x="367" y="352" dy="0.9em">1200</tspan></text></g><g class="venn-area venn-intersection venn-sets-2_3_5"><path style="fill-opacity: 0; stroke-opacity: 0; stroke: red; stroke-width: 0;" d="M 0 0"></path><text style="fill: rgb(68, 68, 68);" text-anchor="middle" dy=".35em" x="0" y="-1000"><tspan x="0" y="-1000" dy="-0.20000000000000007em">130 ^ 265 ^</tspan><tspan x="0" y="-1000" dy="0.9em">1200</tspan></text></g><g class="venn-area venn-intersection venn-sets-0_2_4"><path style="fill-opacity: 0; stroke-opacity: 0; stroke: red; stroke-width: 0;" d="M 0 0"></path><text style="fill: rgb(68, 68, 68);" text-anchor="middle" dy=".35em" x="0" y="-1000"><tspan x="0" y="-1000" dy="-0.20000000000000007em">50 m ^ 130 ^</tspan><tspan x="0" y="-1000" dy="0.9em">300</tspan></text></g><g class="venn-area venn-intersection venn-sets-1_2_4"><path style="fill-opacity: 0; stroke-opacity: 0; stroke: red; stroke-width: 0;" d="M 0 0"></path><text style="fill: rgb(68, 68, 68);" text-anchor="middle" dy=".35em" x="0" y="-1000"><tspan x="0" y="-1000" dy="-0.20000000000000007em">100 m ^ 130 ^</tspan><tspan x="0" y="-1000" dy="0.9em">300</tspan></text></g><g class="venn-area venn-intersection venn-sets-1_3_5"><path style="fill-opacity: 0; stroke-opacity: 0; stroke: red; stroke-width: 0;" d="M 0 0"></path><text style="fill: rgb(68, 68, 68);" text-anchor="middle" dy=".35em" x="0" y="-1000"><tspan x="0" y="-1000" dy="-0.20000000000000007em">100 m ^ 265 ^</tspan><tspan x="0" y="-1000" dy="0.9em">1200</tspan></text></g><g class="venn-area venn-intersection venn-sets-1_4_5"><path style="fill-opacity: 0; stroke-opacity: 0; stroke: red; stroke-width: 0;" d="M 0 0"></path><text style="fill: rgb(68, 68, 68);" text-anchor="middle" dy=".35em" x="0" y="-1000"><tspan x="0" y="-1000" dy="-0.20000000000000007em">100 m ^ 300 ^</tspan><tspan x="0" y="-1000" dy="0.9em">1200</tspan></text></g><g class="venn-area venn-intersection venn-sets-0_2_5"><path style="fill-opacity: 0; stroke-opacity: 0; stroke: red; stroke-width: 0;" d="M 0 0"></path><text style="fill: rgb(68, 68, 68);" text-anchor="middle" dy=".35em" x="0" y="-1000"><tspan x="0" y="-1000" dy="-0.20000000000000007em">50 m ^ 130 ^</tspan><tspan x="0" y="-1000" dy="0.9em">1200</tspan></text></g><g class="venn-area venn-intersection venn-sets-0_3_4"><path style="fill-opacity: 0; stroke-opacity: 0; stroke: red; stroke-width: 0;" d="M 0 0"></path><text style="fill: rgb(68, 68, 68);" text-anchor="middle" dy=".35em" x="0" y="-1000"><tspan x="0" y="-1000" dy="-0.20000000000000007em">50 m ^ 265 ^</tspan><tspan x="0" y="-1000" dy="0.9em">300</tspan></text></g><g class="venn-area venn-intersection venn-sets-2_4_5"><path style="fill-opacity: 0; stroke-opacity: 0; stroke: red; stroke-width: 0;" d="M 0 0"></path><text style="fill: rgb(68, 68, 68);" text-anchor="middle" dy=".35em" x="0" y="-1000"><tspan x="0" y="-1000" dy="-0.20000000000000007em">130 ^ 300 ^</tspan><tspan x="0" y="-1000" dy="0.9em">1200</tspan></text></g><g class="venn-area venn-intersection venn-sets-0_3_5"><path style="fill-opacity: 0; stroke-opacity: 0; stroke: red; stroke-width: 0;" d="M 0 0"></path><text style="fill: rgb(68, 68, 68);" text-anchor="middle" dy=".35em" x="0" y="-1000"><tspan x="0" y="-1000" dy="-0.20000000000000007em">50 m ^ 265 ^</tspan><tspan x="0" y="-1000" dy="0.9em">1200</tspan></text></g><g class="venn-area venn-intersection venn-sets-0_1_4"><path style="fill-opacity: 0; stroke-opacity: 0; stroke: red; stroke-width: 0;" d="M 0 0"></path><text style="fill: rgb(68, 68, 68);" text-anchor="middle" dy=".35em" x="0" y="-1000"><tspan x="0" y="-1000" dy="-0.20000000000000007em">50 m ^ 100 m</tspan><tspan x="0" y="-1000" dy="0.9em">^ 300</tspan></text></g><g class="venn-area venn-intersection venn-sets-3_4_5"><path style="fill-opacity: 0; stroke-opacity: 0; stroke: red; stroke-width: 0;" d="M 0 0"></path><text style="fill: rgb(68, 68, 68);" text-anchor="middle" dy=".35em" x="0" y="-1000"><tspan x="0" y="-1000" dy="-0.20000000000000007em">265 ^ 300 ^</tspan><tspan x="0" y="-1000" dy="0.9em">1200</tspan></text></g><g class="venn-area venn-intersection venn-sets-0_4_5"><path style="fill-opacity: 0; stroke-opacity: 0; stroke: red; stroke-width: 0;" d="M 0 0"></path><text style="fill: rgb(68, 68, 68);" text-anchor="middle" dy=".35em" x="0" y="-1000"><tspan x="0" y="-1000" dy="-0.20000000000000007em">50 m ^ 300 ^</tspan><tspan x="0" y="-1000" dy="0.9em">1200</tspan></text></g><g class="venn-area venn-intersection venn-sets-0_1_5"><path style="fill-opacity: 0; stroke-opacity: 0; stroke: red; stroke-width: 0;" d="M 0 0"></path><text style="fill: rgb(68, 68, 68);" text-anchor="middle" dy=".35em" x="0" y="-1000"><tspan x="0" y="-1000" dy="-0.20000000000000007em">50 m ^ 100 m</tspan><tspan x="0" y="-1000" dy="0.9em">^ 1200</tspan></text></g><g class="venn-area venn-intersection venn-sets-0_1_3"><path style="fill-opacity: 0; stroke-opacity: 0; stroke: red; stroke-width: 0;" d="
M 305.45337629954633 181.513377224295 
A 98.65948327355751 98.65948327355751 0 0 1 308.4968219830964 181.63989858166332 
A 94.1848052341021 94.1848052341021 0 0 1 307.6199551489007 184.62063639127854 
A 88.98380841182784 88.98380841182784 0 0 1 305.45337629954633 181.513377224295"></path><text style="fill: rgb(68, 68, 68);" text-anchor="middle" dy=".35em" x="307" y="182"><tspan x="307" y="182" dy="-0.20000000000000007em">50 m ^ 100 m</tspan><tspan x="307" y="182" dy="0.9em">^ 265</tspan></text></g><g class="venn-area venn-intersection venn-sets-1_2_3_4"><path style="fill-opacity: 0; stroke-opacity: 0; stroke: red; stroke-width: 0;" d="M 0 0"></path><text style="fill: rgb(68, 68, 68);" text-anchor="middle" dy=".35em" x="0" y="-1000"><tspan x="0" y="-1000" dy="-0.20000000000000007em">100 m ^ 130 ^</tspan><tspan x="0" y="-1000" dy="0.9em">265 ^ 300</tspan></text></g><g class="venn-area venn-intersection venn-sets-0_1_2_3"><path style="fill-opacity: 0; stroke-opacity: 0; stroke: red; stroke-width: 0;" d="M 0 0"></path><text style="fill: rgb(68, 68, 68);" text-anchor="middle" dy=".35em" x="0" y="-1000"><tspan x="0" y="-1000" dy="-0.20000000000000007em">50 m ^ 100 m</tspan><tspan x="0" y="-1000" dy="0.9em">^ 130 ^ 265</tspan></text></g><g class="venn-area venn-intersection venn-sets-0_2_3_4"><path style="fill-opacity: 0; stroke-opacity: 0; stroke: red; stroke-width: 0;" d="M 0 0"></path><text style="fill: rgb(68, 68, 68);" text-anchor="middle" dy=".35em" x="0" y="-1000"><tspan x="0" y="-1000" dy="-0.20000000000000007em">50 m ^ 130 ^</tspan><tspan x="0" y="-1000" dy="0.9em">265 ^ 300</tspan></text></g><g class="venn-area venn-intersection venn-sets-2_3_4_5"><path style="fill-opacity: 0; stroke-opacity: 0; stroke: red; stroke-width: 0;" d="M 0 0"></path><text style="fill: rgb(68, 68, 68);" text-anchor="middle" dy=".35em" x="0" y="-1000"><tspan x="0" y="-1000" dy="-0.20000000000000007em">130 ^ 265 ^</tspan><tspan x="0" y="-1000" dy="0.9em">300 ^ 1200</tspan></text></g><g class="venn-area venn-intersection venn-sets-0_1_2_4"><path style="fill-opacity: 0; stroke-opacity: 0; stroke: red; stroke-width: 0;" d="M 0 0"></path><text style="fill: rgb(68, 68, 68);" text-anchor="middle" dy=".35em" x="0" y="-1000"><tspan x="0" y="-1000" dy="-0.20000000000000007em">50 m ^ 100 m</tspan><tspan x="0" y="-1000" dy="0.9em">^ 130 ^ 300</tspan></text></g><g class="venn-area venn-intersection venn-sets-0_1_3_4"><path style="fill-opacity: 0; stroke-opacity: 0; stroke: red; stroke-width: 0;" d="M 0 0"></path><text style="fill: rgb(68, 68, 68);" text-anchor="middle" dy=".35em" x="0" y="-1000"><tspan x="0" y="-1000" dy="-0.20000000000000007em">50 m ^ 100 m</tspan><tspan x="0" y="-1000" dy="0.9em">^ 265 ^ 300</tspan></text></g><g class="venn-area venn-intersection venn-sets-0_2_3_5"><path style="fill-opacity: 0; stroke-opacity: 0; stroke: red; stroke-width: 0;" d="M 0 0"></path><text style="fill: rgb(68, 68, 68);" text-anchor="middle" dy=".35em" x="0" y="-1000"><tspan x="0" y="-1000" dy="-0.20000000000000007em">50 m ^ 130 ^</tspan><tspan x="0" y="-1000" dy="0.9em">265 ^ 1200</tspan></text></g><g class="venn-area venn-intersection venn-sets-0_1_3_5"><path style="fill-opacity: 0; stroke-opacity: 0; stroke: red; stroke-width: 0;" d="M 0 0"></path><text style="fill: rgb(68, 68, 68);" text-anchor="middle" dy=".35em" x="0" y="-1000"><tspan x="0" y="-1000" dy="-0.20000000000000007em">50 m ^ 100 m</tspan><tspan x="0" y="-1000" dy="0.9em">^ 265 ^ 1200</tspan></text></g><g class="venn-area venn-intersection venn-sets-0_2_4_5"><path style="fill-opacity: 0; stroke-opacity: 0; stroke: red; stroke-width: 0;" d="M 0 0"></path><text style="fill: rgb(68, 68, 68);" text-anchor="middle" dy=".35em" x="0" y="-1000"><tspan x="0" y="-1000" dy="-0.20000000000000007em">50 m ^ 130 ^</tspan><tspan x="0" y="-1000" dy="0.9em">300 ^ 1200</tspan></text></g><g class="venn-area venn-intersection venn-sets-1_2_3_5"><path style="fill-opacity: 0; stroke-opacity: 0; stroke: red; stroke-width: 0;" d="M 0 0"></path><text style="fill: rgb(68, 68, 68);" text-anchor="middle" dy=".35em" x="0" y="-1000"><tspan x="0" y="-1000" dy="-0.20000000000000007em">100 m ^ 130 ^</tspan><tspan x="0" y="-1000" dy="0.9em">265 ^ 1200</tspan></text></g><g class="venn-area venn-intersection venn-sets-1_2_4_5"><path style="fill-opacity: 0; stroke-opacity: 0; stroke: red; stroke-width: 0;" d="M 0 0"></path><text style="fill: rgb(68, 68, 68);" text-anchor="middle" dy=".35em" x="0" y="-1000"><tspan x="0" y="-1000" dy="-0.20000000000000007em">100 m ^ 130 ^</tspan><tspan x="0" y="-1000" dy="0.9em">300 ^ 1200</tspan></text></g><g class="venn-area venn-intersection venn-sets-0_1_4_5"><path style="fill-opacity: 0; stroke-opacity: 0; stroke: red; stroke-width: 0;" d="M 0 0"></path><text style="fill: rgb(68, 68, 68);" text-anchor="middle" dy=".35em" x="0" y="-1000"><tspan x="0" y="-1000" dy="-0.20000000000000007em">50 m ^ 100 m</tspan><tspan x="0" y="-1000" dy="0.9em">^ 300 ^ 1200</tspan></text></g><g class="venn-area venn-intersection venn-sets-0_1_2_5"><path style="fill-opacity: 0; stroke-opacity: 0; stroke: red; stroke-width: 0;" d="M 0 0"></path><text style="fill: rgb(68, 68, 68);" text-anchor="middle" dy=".35em" x="0" y="-1000"><tspan x="0" y="-1000" dy="-0.20000000000000007em">50 m ^ 100 m</tspan><tspan x="0" y="-1000" dy="0.9em">^ 130 ^ 1200</tspan></text></g><g class="venn-area venn-intersection venn-sets-0_3_4_5"><path style="fill-opacity: 0; stroke-opacity: 0; stroke: red; stroke-width: 0;" d="M 0 0"></path><text style="fill: rgb(68, 68, 68);" text-anchor="middle" dy=".35em" x="0" y="-1000"><tspan x="0" y="-1000" dy="-0.20000000000000007em">50 m ^ 265 ^</tspan><tspan x="0" y="-1000" dy="0.9em">300 ^ 1200</tspan></text></g><g class="venn-area venn-intersection venn-sets-1_3_4_5"><path style="fill-opacity: 0; stroke-opacity: 0; stroke: red; stroke-width: 0;" d="M 0 0"></path><text style="fill: rgb(68, 68, 68);" text-anchor="middle" dy=".35em" x="0" y="-1000"><tspan x="0" y="-1000" dy="-0.20000000000000007em">100 m ^ 265 ^</tspan><tspan x="0" y="-1000" dy="0.9em">300 ^ 1200</tspan></text></g><g class="venn-area venn-intersection venn-sets-0_1_2_3_4"><path style="fill-opacity: 0; stroke-opacity: 0; stroke: red; stroke-width: 0;" d="M 0 0"></path><text style="fill: rgb(68, 68, 68);" text-anchor="middle" dy=".35em" x="0" y="-1000"><tspan x="0" y="-1000" dy="-0.7500000000000001em">50 m ^ 100 m</tspan><tspan x="0" y="-1000" dy="0.35em">^ 130 ^ 265 ^</tspan><tspan x="0" y="-1000" dy="1.4500000000000002em">300</tspan></text></g><g class="venn-area venn-intersection venn-sets-1_2_3_4_5"><path style="fill-opacity: 0; stroke-opacity: 0; stroke: red; stroke-width: 0;" d="M 0 0"></path><text style="fill: rgb(68, 68, 68);" text-anchor="middle" dy=".35em" x="0" y="-1000"><tspan x="0" y="-1000" dy="-0.7500000000000001em">100 m ^ 130 ^</tspan><tspan x="0" y="-1000" dy="0.35em">265 ^ 300 ^</tspan><tspan x="0" y="-1000" dy="1.4500000000000002em">1200</tspan></text></g><g class="venn-area venn-intersection venn-sets-0_1_3_4_5"><path style="fill-opacity: 0; stroke-opacity: 0; stroke: red; stroke-width: 0;" d="M 0 0"></path><text style="fill: rgb(68, 68, 68);" text-anchor="middle" dy=".35em" x="0" y="-1000"><tspan x="0" y="-1000" dy="-0.7500000000000001em">50 m ^ 100 m ^</tspan><tspan x="0" y="-1000" dy="0.35em">265 ^ 300 ^</tspan><tspan x="0" y="-1000" dy="1.4500000000000002em">1200</tspan></text></g><g class="venn-area venn-intersection venn-sets-0_1_2_3_5"><path style="fill-opacity: 0; stroke-opacity: 0; stroke: red; stroke-width: 0;" d="M 0 0"></path><text style="fill: rgb(68, 68, 68);" text-anchor="middle" dy=".35em" x="0" y="-1000"><tspan x="0" y="-1000" dy="-0.7500000000000001em">50 m ^ 100 m ^</tspan><tspan x="0" y="-1000" dy="0.35em">130 ^ 265 ^</tspan><tspan x="0" y="-1000" dy="1.4500000000000002em">1200</tspan></text></g><g class="venn-area venn-intersection venn-sets-0_1_2_4_5"><path style="fill-opacity: 0; stroke-opacity: 0; stroke: red; stroke-width: 0;" d="M 0 0"></path><text style="fill: rgb(68, 68, 68);" text-anchor="middle" dy=".35em" x="0" y="-1000"><tspan x="0" y="-1000" dy="-0.7500000000000001em">50 m ^ 100 m ^</tspan><tspan x="0" y="-1000" dy="0.35em">130 ^ 300 ^</tspan><tspan x="0" y="-1000" dy="1.4500000000000002em">1200</tspan></text></g><g class="venn-area venn-intersection venn-sets-0_2_3_4_5"><path style="fill-opacity: 0; stroke-opacity: 0; stroke: red; stroke-width: 0;" d="M 0 0"></path><text style="fill: rgb(68, 68, 68);" text-anchor="middle" dy=".35em" x="0" y="-1000"><tspan x="0" y="-1000" dy="-0.7500000000000001em">50 m ^ 130 ^</tspan><tspan x="0" y="-1000" dy="0.35em">265 ^ 300 ^</tspan><tspan x="0" y="-1000" dy="1.4500000000000002em">1200</tspan></text></g><g class="venn-area venn-intersection venn-sets-0_1_2_3_4_5"><path style="fill-opacity: 0; stroke-opacity: 0; stroke: red; stroke-width: 0;" d="M 0 0"></path><text style="fill: rgb(68, 68, 68);" text-anchor="middle" dy=".35em" x="0" y="-1000"><tspan x="0" y="-1000" dy="-0.7500000000000001em">50 m ^ 100 m ^</tspan><tspan x="0" y="-1000" dy="0.35em">130 ^ 265 ^ 300</tspan><tspan x="0" y="-1000" dy="1.4500000000000002em">^ 1200</tspan></text></g></svg>